<svg width="801" height="600" viewBox="0 0 801 600" fill="none" xmlns="http://www.w3.org/2000/svg">
<g filter="url(#filter0_f_54_2)">
<path d="M169.255 418.109H182.755V460.859H169.255V418.109ZM223.047 428.534C223.497 429.084 223.822 430.459 224.022 432.659C224.272 434.859 224.397 438.209 224.397 442.709V460.859H211.572V442.859V439.784C211.572 438.184 211.447 437.184 211.197 436.784C210.797 436.284 209.872 436.034 208.422 436.034C207.722 436.034 207.197 436.059 206.847 436.109C205.447 436.159 203.997 436.484 202.497 437.084V460.859H189.672V426.359H200.097L201.522 432.134C205.122 427.784 209.422 425.609 214.422 425.609C216.222 425.609 217.897 425.859 219.447 426.359C221.047 426.859 222.247 427.584 223.047 428.534ZM264.672 415.334V460.859H254.097L253.047 455.084C252.047 457.034 250.572 458.584 248.622 459.734C246.672 460.884 244.472 461.459 242.022 461.459C238.122 461.459 234.997 460.059 232.647 457.259C230.347 454.459 229.197 450.259 229.197 444.659C229.197 440.409 229.697 436.909 230.697 434.159C231.697 431.409 232.872 429.434 234.222 428.234C235.072 427.484 236.797 426.859 239.397 426.359C242.047 425.859 244.397 425.609 246.447 425.609C248.247 425.609 250.097 425.784 251.997 426.134C251.847 423.734 251.772 422.409 251.772 422.159V415.859L264.672 415.334ZM247.647 451.409C248.997 451.409 250.397 451.184 251.847 450.734V434.459C250.397 434.259 248.797 434.159 247.047 434.159C245.547 434.159 244.597 434.284 244.197 434.534C243.647 434.934 243.197 436.084 242.847 437.984C242.547 439.834 242.397 441.784 242.397 443.834C242.397 446.884 242.847 448.909 243.747 449.909C244.697 450.909 245.997 451.409 247.647 451.409ZM287.475 461.834C281.475 461.834 276.975 460.434 273.975 457.634C271.025 454.784 269.55 450.309 269.55 444.209C269.55 440.859 269.85 437.934 270.45 435.434C271.1 432.884 271.875 431.109 272.775 430.109C273.925 428.809 276.025 427.734 279.075 426.884C282.175 426.034 285.075 425.609 287.775 425.609C294.225 425.609 298.825 426.984 301.575 429.734C304.325 432.484 305.7 436.884 305.7 442.934C305.7 449.434 304.225 454.209 301.275 457.259C298.325 460.309 293.725 461.834 287.475 461.834ZM287.7 453.059C289.65 453.059 290.925 452.384 291.525 451.034C292.125 449.634 292.425 447.184 292.425 443.684C292.425 441.234 292.3 439.359 292.05 438.059C291.8 436.709 291.325 435.734 290.625 435.134C289.975 434.484 288.95 434.159 287.55 434.159C285.55 434.159 284.4 434.334 284.1 434.684C283.7 435.034 283.375 436.134 283.125 437.984C282.875 439.834 282.75 441.759 282.75 443.759C282.75 447.159 283.075 449.559 283.725 450.959C284.425 452.359 285.75 453.059 287.7 453.059ZM364.52 428.759C365.32 429.959 365.72 434.609 365.72 442.709V460.859H352.895V443.984V439.934C352.895 438.084 352.72 436.984 352.37 436.634C351.97 436.234 351.12 436.034 349.82 436.034L348.92 436.109C347.37 436.209 345.895 436.559 344.495 437.159C344.545 438.209 344.57 440.059 344.57 442.709V460.859H331.745V443.984V439.484C331.745 437.934 331.57 436.984 331.22 436.634C330.82 436.234 329.97 436.034 328.67 436.034L327.77 436.109C326.37 436.159 324.92 436.484 323.42 437.084V460.859H310.595V426.359H321.02L322.37 431.984C324.02 429.784 325.92 428.184 328.07 427.184C330.22 426.134 332.395 425.609 334.595 425.609C336.445 425.609 338.195 425.884 339.845 426.434C341.545 426.984 342.72 427.759 343.37 428.759C343.67 429.209 343.92 430.034 344.12 431.234C345.72 429.284 347.545 427.859 349.595 426.959C351.645 426.059 353.695 425.609 355.745 425.609C357.595 425.609 359.345 425.884 360.995 426.434C362.695 426.984 363.87 427.759 364.52 428.759ZM378.354 422.084C376.654 422.084 375.179 421.509 373.929 420.359C372.729 419.209 372.129 417.834 372.129 416.234C372.129 414.634 372.729 413.259 373.929 412.109C375.179 410.959 376.654 410.384 378.354 410.384C380.054 410.384 381.504 410.959 382.704 412.109C383.904 413.259 384.504 414.634 384.504 416.234C384.504 417.834 383.904 419.209 382.704 420.359C381.504 421.509 380.054 422.084 378.354 422.084ZM371.904 426.359H384.729V460.859H371.904V426.359ZM424.463 428.534C424.913 429.084 425.238 430.459 425.438 432.659C425.688 434.859 425.813 438.209 425.813 442.709V460.859H412.988V442.859V439.784C412.988 438.184 412.863 437.184 412.613 436.784C412.213 436.284 411.288 436.034 409.838 436.034C409.138 436.034 408.613 436.059 408.263 436.109C406.863 436.159 405.413 436.484 403.913 437.084V460.859H391.088V426.359H401.513L402.938 432.134C406.538 427.784 410.838 425.609 415.838 425.609C417.638 425.609 419.313 425.859 420.863 426.359C422.463 426.859 423.663 427.584 424.463 428.534ZM466.238 426.359V460.859H455.813L454.388 455.084C450.788 459.434 446.488 461.609 441.488 461.609C439.688 461.609 437.988 461.359 436.388 460.859C434.838 460.359 433.663 459.634 432.863 458.684C432.413 458.134 432.063 456.759 431.813 454.559C431.613 452.359 431.513 449.009 431.513 444.509V426.359H444.338V444.359C444.338 445.359 444.363 446.534 444.413 447.884C444.463 449.234 444.613 450.084 444.863 450.434C445.213 450.934 446.213 451.184 447.863 451.184L449.063 451.109C450.463 451.059 451.913 450.734 453.413 450.134V426.359H466.238ZM500.287 449.159C500.287 453.609 498.862 456.809 496.012 458.759C493.212 460.709 489.212 461.684 484.012 461.684C480.362 461.684 476.162 461.159 471.412 460.109C471.512 459.109 471.737 457.684 472.087 455.834C472.487 453.934 472.812 452.484 473.062 451.484C474.862 451.784 476.862 452.034 479.062 452.234C481.262 452.384 483.137 452.459 484.687 452.459C486.037 452.459 486.862 452.384 487.162 452.234C487.212 452.184 487.262 452.059 487.312 451.859C487.412 451.609 487.462 451.359 487.462 451.109C487.462 450.109 486.837 449.434 485.587 449.084C485.187 448.984 483.662 448.559 481.012 447.809C478.362 447.059 476.187 445.709 474.487 443.759C472.837 441.759 472.012 439.284 472.012 436.334C472.012 434.784 472.362 433.059 473.062 431.159C473.762 429.259 474.512 428.059 475.312 427.559C475.912 427.159 477.362 426.759 479.662 426.359C481.962 425.909 484.087 425.684 486.037 425.684C490.187 425.684 494.362 425.984 498.562 426.584C498.562 427.484 498.437 429.009 498.187 431.159C497.937 433.259 497.712 434.584 497.512 435.134C493.262 434.584 489.837 434.309 487.237 434.309C485.887 434.309 485.012 434.384 484.612 434.534C484.512 434.584 484.412 434.734 484.312 434.984C484.212 435.184 484.162 435.459 484.162 435.809C484.162 436.509 484.387 437.009 484.837 437.309C485.287 437.659 486.462 438.084 488.362 438.584C490.612 439.234 492.537 439.909 494.137 440.609C495.787 441.309 497.212 442.359 498.412 443.759C499.662 445.159 500.287 446.959 500.287 449.159ZM516.045 415.859L528.87 415.334V460.859H516.045V415.859ZM555.779 460.859L554.579 456.134C552.279 459.884 549.079 461.759 544.979 461.759C541.629 461.759 538.879 460.834 536.729 458.984C534.629 457.084 533.579 454.434 533.579 451.034C533.579 448.934 534.179 447.109 535.379 445.559C536.629 443.959 538.329 442.834 540.479 442.184C543.279 441.384 547.604 440.934 553.454 440.834C553.454 437.534 553.304 435.784 553.004 435.584C552.754 435.384 551.954 435.284 550.604 435.284C549.754 435.284 548.579 435.334 547.079 435.434C544.679 435.534 541.429 435.809 537.329 436.259C536.929 433.559 536.629 430.659 536.429 427.559C539.079 427.009 541.854 426.559 544.754 426.209C547.654 425.809 550.254 425.609 552.554 425.609C556.554 425.609 559.554 426.284 561.554 427.634C563.554 428.934 564.854 430.659 565.454 432.809C566.054 434.959 566.329 437.684 566.279 440.984L566.204 452.009L566.429 460.859H555.779ZM549.329 453.359C550.629 453.359 552.004 453.109 553.454 452.609V447.059H552.854C549.154 447.059 547.104 447.259 546.704 447.659C546.454 447.909 546.254 448.284 546.104 448.784C546.004 449.284 545.954 449.759 545.954 450.209C545.954 451.409 546.229 452.234 546.779 452.684C547.329 453.134 548.179 453.359 549.329 453.359ZM595.245 425.609C599.145 425.609 602.145 426.784 604.245 429.134C606.395 431.484 607.47 435.634 607.47 441.584C607.47 445.934 607.02 449.659 606.12 452.759C605.27 455.809 604.295 457.759 603.195 458.609C601.895 459.659 599.97 460.434 597.42 460.934C594.87 461.434 591.97 461.684 588.72 461.684C586.22 461.684 583.42 461.484 580.32 461.084C577.22 460.734 574.445 460.159 571.995 459.359V415.859L584.97 415.334V422.384C584.97 422.784 584.945 423.709 584.895 425.159C584.895 426.609 584.845 427.834 584.745 428.834C584.645 429.784 584.495 430.509 584.295 431.009L584.745 431.534C585.895 429.784 587.345 428.359 589.095 427.259C590.845 426.159 592.895 425.609 595.245 425.609ZM593.145 452.684C593.445 452.184 593.695 451.009 593.895 449.159C594.145 447.309 594.27 445.534 594.27 443.834C594.27 441.834 594.17 440.259 593.97 439.109C593.82 437.959 593.395 437.059 592.695 436.409C592.045 435.709 591.02 435.359 589.62 435.359C588.37 435.359 586.77 435.534 584.82 435.884V452.834C586.67 453.134 588.595 453.284 590.595 453.284C592.045 453.284 592.895 453.084 593.145 452.684ZM640.326 449.159C640.326 453.609 638.901 456.809 636.051 458.759C633.251 460.709 629.251 461.684 624.051 461.684C620.401 461.684 616.201 461.159 611.451 460.109C611.551 459.109 611.776 457.684 612.126 455.834C612.526 453.934 612.851 452.484 613.101 451.484C614.901 451.784 616.901 452.034 619.101 452.234C621.301 452.384 623.176 452.459 624.726 452.459C626.076 452.459 626.901 452.384 627.201 452.234C627.251 452.184 627.301 452.059 627.351 451.859C627.451 451.609 627.501 451.359 627.501 451.109C627.501 450.109 626.876 449.434 625.626 449.084C625.226 448.984 623.701 448.559 621.051 447.809C618.401 447.059 616.226 445.709 614.526 443.759C612.876 441.759 612.051 439.284 612.051 436.334C612.051 434.784 612.401 433.059 613.101 431.159C613.801 429.259 614.551 428.059 615.351 427.559C615.951 427.159 617.401 426.759 619.701 426.359C622.001 425.909 624.126 425.684 626.076 425.684C630.226 425.684 634.401 425.984 638.601 426.584C638.601 427.484 638.476 429.009 638.226 431.159C637.976 433.259 637.751 434.584 637.551 435.134C633.301 434.584 629.876 434.309 627.276 434.309C625.926 434.309 625.051 434.384 624.651 434.534C624.551 434.584 624.451 434.734 624.351 434.984C624.251 435.184 624.201 435.459 624.201 435.809C624.201 436.509 624.426 437.009 624.876 437.309C625.326 437.659 626.501 438.084 628.401 438.584C630.651 439.234 632.576 439.909 634.176 440.609C635.826 441.309 637.251 442.359 638.451 443.759C639.701 445.159 640.326 446.959 640.326 449.159Z" fill="url(#paint0_linear_54_2)"/>
</g>
<g filter="url(#filter1_d_54_2)">
<path d="M169.255 415.147H182.755V457.897H169.255V415.147ZM223.047 425.572C223.497 426.122 223.822 427.497 224.022 429.697C224.272 431.897 224.397 435.247 224.397 439.747V457.897H211.572V439.897V436.822C211.572 435.222 211.447 434.222 211.197 433.822C210.797 433.322 209.872 433.072 208.422 433.072C207.722 433.072 207.197 433.097 206.847 433.147C205.447 433.197 203.997 433.522 202.497 434.122V457.897H189.672V423.397H200.097L201.522 429.172C205.122 424.822 209.422 422.647 214.422 422.647C216.222 422.647 217.897 422.897 219.447 423.397C221.047 423.897 222.247 424.622 223.047 425.572ZM264.672 412.372V457.897H254.097L253.047 452.122C252.047 454.072 250.572 455.622 248.622 456.772C246.672 457.922 244.472 458.497 242.022 458.497C238.122 458.497 234.997 457.097 232.647 454.297C230.347 451.497 229.197 447.297 229.197 441.697C229.197 437.447 229.697 433.947 230.697 431.197C231.697 428.447 232.872 426.472 234.222 425.272C235.072 424.522 236.797 423.897 239.397 423.397C242.047 422.897 244.397 422.647 246.447 422.647C248.247 422.647 250.097 422.822 251.997 423.172C251.847 420.772 251.772 419.447 251.772 419.197V412.897L264.672 412.372ZM247.647 448.447C248.997 448.447 250.397 448.222 251.847 447.772V431.497C250.397 431.297 248.797 431.197 247.047 431.197C245.547 431.197 244.597 431.322 244.197 431.572C243.647 431.972 243.197 433.122 242.847 435.022C242.547 436.872 242.397 438.822 242.397 440.872C242.397 443.922 242.847 445.947 243.747 446.947C244.697 447.947 245.997 448.447 247.647 448.447ZM287.475 458.872C281.475 458.872 276.975 457.472 273.975 454.672C271.025 451.822 269.55 447.347 269.55 441.247C269.55 437.897 269.85 434.972 270.45 432.472C271.1 429.922 271.875 428.147 272.775 427.147C273.925 425.847 276.025 424.772 279.075 423.922C282.175 423.072 285.075 422.647 287.775 422.647C294.225 422.647 298.825 424.022 301.575 426.772C304.325 429.522 305.7 433.922 305.7 439.972C305.7 446.472 304.225 451.247 301.275 454.297C298.325 457.347 293.725 458.872 287.475 458.872ZM287.7 450.097C289.65 450.097 290.925 449.422 291.525 448.072C292.125 446.672 292.425 444.222 292.425 440.722C292.425 438.272 292.3 436.397 292.05 435.097C291.8 433.747 291.325 432.772 290.625 432.172C289.975 431.522 288.95 431.197 287.55 431.197C285.55 431.197 284.4 431.372 284.1 431.722C283.7 432.072 283.375 433.172 283.125 435.022C282.875 436.872 282.75 438.797 282.75 440.797C282.75 444.197 283.075 446.597 283.725 447.997C284.425 449.397 285.75 450.097 287.7 450.097ZM364.52 425.797C365.32 426.997 365.72 431.647 365.72 439.747V457.897H352.895V441.022V436.972C352.895 435.122 352.72 434.022 352.37 433.672C351.97 433.272 351.12 433.072 349.82 433.072L348.92 433.147C347.37 433.247 345.895 433.597 344.495 434.197C344.545 435.247 344.57 437.097 344.57 439.747V457.897H331.745V441.022V436.522C331.745 434.972 331.57 434.022 331.22 433.672C330.82 433.272 329.97 433.072 328.67 433.072L327.77 433.147C326.37 433.197 324.92 433.522 323.42 434.122V457.897H310.595V423.397H321.02L322.37 429.022C324.02 426.822 325.92 425.222 328.07 424.222C330.22 423.172 332.395 422.647 334.595 422.647C336.445 422.647 338.195 422.922 339.845 423.472C341.545 424.022 342.72 424.797 343.37 425.797C343.67 426.247 343.92 427.072 344.12 428.272C345.72 426.322 347.545 424.897 349.595 423.997C351.645 423.097 353.695 422.647 355.745 422.647C357.595 422.647 359.345 422.922 360.995 423.472C362.695 424.022 363.87 424.797 364.52 425.797ZM378.354 419.122C376.654 419.122 375.179 418.547 373.929 417.397C372.729 416.247 372.129 414.872 372.129 413.272C372.129 411.672 372.729 410.297 373.929 409.147C375.179 407.997 376.654 407.422 378.354 407.422C380.054 407.422 381.504 407.997 382.704 409.147C383.904 410.297 384.504 411.672 384.504 413.272C384.504 414.872 383.904 416.247 382.704 417.397C381.504 418.547 380.054 419.122 378.354 419.122ZM371.904 423.397H384.729V457.897H371.904V423.397ZM424.463 425.572C424.913 426.122 425.238 427.497 425.438 429.697C425.688 431.897 425.813 435.247 425.813 439.747V457.897H412.988V439.897V436.822C412.988 435.222 412.863 434.222 412.613 433.822C412.213 433.322 411.288 433.072 409.838 433.072C409.138 433.072 408.613 433.097 408.263 433.147C406.863 433.197 405.413 433.522 403.913 434.122V457.897H391.088V423.397H401.513L402.938 429.172C406.538 424.822 410.838 422.647 415.838 422.647C417.638 422.647 419.313 422.897 420.863 423.397C422.463 423.897 423.663 424.622 424.463 425.572ZM466.238 423.397V457.897H455.813L454.388 452.122C450.788 456.472 446.488 458.647 441.488 458.647C439.688 458.647 437.988 458.397 436.388 457.897C434.838 457.397 433.663 456.672 432.863 455.722C432.413 455.172 432.063 453.797 431.813 451.597C431.613 449.397 431.513 446.047 431.513 441.547V423.397H444.338V441.397C444.338 442.397 444.363 443.572 444.413 444.922C444.463 446.272 444.613 447.122 444.863 447.472C445.213 447.972 446.213 448.222 447.863 448.222L449.063 448.147C450.463 448.097 451.913 447.772 453.413 447.172V423.397H466.238ZM500.287 446.197C500.287 450.647 498.862 453.847 496.012 455.797C493.212 457.747 489.212 458.722 484.012 458.722C480.362 458.722 476.162 458.197 471.412 457.147C471.512 456.147 471.737 454.722 472.087 452.872C472.487 450.972 472.812 449.522 473.062 448.522C474.862 448.822 476.862 449.072 479.062 449.272C481.262 449.422 483.137 449.497 484.687 449.497C486.037 449.497 486.862 449.422 487.162 449.272C487.212 449.222 487.262 449.097 487.312 448.897C487.412 448.647 487.462 448.397 487.462 448.147C487.462 447.147 486.837 446.472 485.587 446.122C485.187 446.022 483.662 445.597 481.012 444.847C478.362 444.097 476.187 442.747 474.487 440.797C472.837 438.797 472.012 436.322 472.012 433.372C472.012 431.822 472.362 430.097 473.062 428.197C473.762 426.297 474.512 425.097 475.312 424.597C475.912 424.197 477.362 423.797 479.662 423.397C481.962 422.947 484.087 422.722 486.037 422.722C490.187 422.722 494.362 423.022 498.562 423.622C498.562 424.522 498.437 426.047 498.187 428.197C497.937 430.297 497.712 431.622 497.512 432.172C493.262 431.622 489.837 431.347 487.237 431.347C485.887 431.347 485.012 431.422 484.612 431.572C484.512 431.622 484.412 431.772 484.312 432.022C484.212 432.222 484.162 432.497 484.162 432.847C484.162 433.547 484.387 434.047 484.837 434.347C485.287 434.697 486.462 435.122 488.362 435.622C490.612 436.272 492.537 436.947 494.137 437.647C495.787 438.347 497.212 439.397 498.412 440.797C499.662 442.197 500.287 443.997 500.287 446.197ZM516.045 412.897L528.87 412.372V457.897H516.045V412.897ZM555.779 457.897L554.579 453.172C552.279 456.922 549.079 458.797 544.979 458.797C541.629 458.797 538.879 457.872 536.729 456.022C534.629 454.122 533.579 451.472 533.579 448.072C533.579 445.972 534.179 444.147 535.379 442.597C536.629 440.997 538.329 439.872 540.479 439.222C543.279 438.422 547.604 437.972 553.454 437.872C553.454 434.572 553.304 432.822 553.004 432.622C552.754 432.422 551.954 432.322 550.604 432.322C549.754 432.322 548.579 432.372 547.079 432.472C544.679 432.572 541.429 432.847 537.329 433.297C536.929 430.597 536.629 427.697 536.429 424.597C539.079 424.047 541.854 423.597 544.754 423.247C547.654 422.847 550.254 422.647 552.554 422.647C556.554 422.647 559.554 423.322 561.554 424.672C563.554 425.972 564.854 427.697 565.454 429.847C566.054 431.997 566.329 434.722 566.279 438.022L566.204 449.047L566.429 457.897H555.779ZM549.329 450.397C550.629 450.397 552.004 450.147 553.454 449.647V444.097H552.854C549.154 444.097 547.104 444.297 546.704 444.697C546.454 444.947 546.254 445.322 546.104 445.822C546.004 446.322 545.954 446.797 545.954 447.247C545.954 448.447 546.229 449.272 546.779 449.722C547.329 450.172 548.179 450.397 549.329 450.397ZM595.245 422.647C599.145 422.647 602.145 423.822 604.245 426.172C606.395 428.522 607.47 432.672 607.47 438.622C607.47 442.972 607.02 446.697 606.12 449.797C605.27 452.847 604.295 454.797 603.195 455.647C601.895 456.697 599.97 457.472 597.42 457.972C594.87 458.472 591.97 458.722 588.72 458.722C586.22 458.722 583.42 458.522 580.32 458.122C577.22 457.772 574.445 457.197 571.995 456.397V412.897L584.97 412.372V419.422C584.97 419.822 584.945 420.747 584.895 422.197C584.895 423.647 584.845 424.872 584.745 425.872C584.645 426.822 584.495 427.547 584.295 428.047L584.745 428.572C585.895 426.822 587.345 425.397 589.095 424.297C590.845 423.197 592.895 422.647 595.245 422.647ZM593.145 449.722C593.445 449.222 593.695 448.047 593.895 446.197C594.145 444.347 594.27 442.572 594.27 440.872C594.27 438.872 594.17 437.297 593.97 436.147C593.82 434.997 593.395 434.097 592.695 433.447C592.045 432.747 591.02 432.397 589.62 432.397C588.37 432.397 586.77 432.572 584.82 432.922V449.872C586.67 450.172 588.595 450.322 590.595 450.322C592.045 450.322 592.895 450.122 593.145 449.722ZM640.326 446.197C640.326 450.647 638.901 453.847 636.051 455.797C633.251 457.747 629.251 458.722 624.051 458.722C620.401 458.722 616.201 458.197 611.451 457.147C611.551 456.147 611.776 454.722 612.126 452.872C612.526 450.972 612.851 449.522 613.101 448.522C614.901 448.822 616.901 449.072 619.101 449.272C621.301 449.422 623.176 449.497 624.726 449.497C626.076 449.497 626.901 449.422 627.201 449.272C627.251 449.222 627.301 449.097 627.351 448.897C627.451 448.647 627.501 448.397 627.501 448.147C627.501 447.147 626.876 446.472 625.626 446.122C625.226 446.022 623.701 445.597 621.051 444.847C618.401 444.097 616.226 442.747 614.526 440.797C612.876 438.797 612.051 436.322 612.051 433.372C612.051 431.822 612.401 430.097 613.101 428.197C613.801 426.297 614.551 425.097 615.351 424.597C615.951 424.197 617.401 423.797 619.701 423.397C622.001 422.947 624.126 422.722 626.076 422.722C630.226 422.722 634.401 423.022 638.601 423.622C638.601 424.522 638.476 426.047 638.226 428.197C637.976 430.297 637.751 431.622 637.551 432.172C633.301 431.622 629.876 431.347 627.276 431.347C625.926 431.347 625.051 431.422 624.651 431.572C624.551 431.622 624.451 431.772 624.351 432.022C624.251 432.222 624.201 432.497 624.201 432.847C624.201 433.547 624.426 434.047 624.876 434.347C625.326 434.697 626.501 435.122 628.401 435.622C630.651 436.272 632.576 436.947 634.176 437.647C635.826 438.347 637.251 439.397 638.451 440.797C639.701 442.197 640.326 443.997 640.326 446.197Z" fill="url(#paint1_linear_54_2)" shape-rendering="crispEdges"/>
<path d="M169.255 415.147V413.647H167.755V415.147H169.255ZM182.755 415.147H184.255V413.647H182.755V415.147ZM182.755 457.897V459.397H184.255V457.897H182.755ZM169.255 457.897H167.755V459.397H169.255V457.897ZM169.255 416.647H182.755V413.647H169.255V416.647ZM181.255 415.147V457.897H184.255V415.147H181.255ZM182.755 456.397H169.255V459.397H182.755V456.397ZM170.755 457.897V415.147H167.755V457.897H170.755ZM223.047 425.572L224.208 424.623L224.201 424.614L224.195 424.606L223.047 425.572ZM224.022 429.697L222.528 429.833L222.53 429.85L222.532 429.867L224.022 429.697ZM224.397 457.897V459.397H225.897V457.897H224.397ZM211.572 457.897H210.072V459.397H211.572V457.897ZM211.197 433.822L212.469 433.027L212.423 432.954L212.368 432.885L211.197 433.822ZM206.847 433.147L206.901 434.647L206.98 434.644L207.059 434.632L206.847 433.147ZM202.497 434.122L201.94 432.73L200.997 433.107V434.122H202.497ZM202.497 457.897V459.397H203.997V457.897H202.497ZM189.672 457.897H188.172V459.397H189.672V457.897ZM189.672 423.397V421.897H188.172V423.397H189.672ZM200.097 423.397L201.553 423.038L201.272 421.897H200.097V423.397ZM201.522 429.172L200.066 429.532L200.779 432.423L202.678 430.129L201.522 429.172ZM219.447 423.397L218.987 424.825L219 424.829L219.447 423.397ZM221.886 426.522C221.884 426.52 222.017 426.718 222.169 427.361C222.308 427.953 222.432 428.769 222.528 429.833L225.516 429.562C225.413 428.426 225.273 427.455 225.088 426.671C224.915 425.939 224.66 425.175 224.208 424.623L221.886 426.522ZM222.532 429.867C222.772 431.979 222.897 435.259 222.897 439.747H225.897C225.897 435.236 225.773 431.816 225.513 429.528L222.532 429.867ZM222.897 439.747V457.897H225.897V439.747H222.897ZM224.397 456.397H211.572V459.397H224.397V456.397ZM213.072 457.897V439.897H210.072V457.897H213.072ZM213.072 439.897V436.822H210.072V439.897H213.072ZM213.072 436.822C213.072 435.992 213.04 435.273 212.967 434.686C212.901 434.161 212.781 433.526 212.469 433.027L209.925 434.617C209.864 434.519 209.931 434.584 209.99 435.059C210.042 435.472 210.072 436.053 210.072 436.822H213.072ZM212.368 432.885C211.893 432.291 211.22 431.981 210.595 431.812C209.957 431.64 209.219 431.572 208.422 431.572V434.572C209.075 434.572 209.525 434.63 209.812 434.708C210.112 434.789 210.102 434.854 210.026 434.76L212.368 432.885ZM208.422 431.572C207.706 431.572 207.094 431.597 206.635 431.663L207.059 434.632C207.3 434.598 207.739 434.572 208.422 434.572V431.572ZM206.794 431.648C205.197 431.705 203.576 432.075 201.94 432.73L203.054 435.515C204.418 434.97 205.698 434.689 206.901 434.647L206.794 431.648ZM200.997 434.122V457.897H203.997V434.122H200.997ZM202.497 456.397H189.672V459.397H202.497V456.397ZM191.172 457.897V423.397H188.172V457.897H191.172ZM189.672 424.897H200.097V421.897H189.672V424.897ZM198.641 423.757L200.066 429.532L202.978 428.813L201.553 423.038L198.641 423.757ZM202.678 430.129C206.034 426.073 209.93 424.147 214.422 424.147V421.147C208.914 421.147 204.21 423.572 200.367 428.216L202.678 430.129ZM214.422 424.147C216.082 424.147 217.6 424.378 218.987 424.825L219.908 421.97C218.194 421.417 216.362 421.147 214.422 421.147V424.147ZM219 424.829C220.42 425.273 221.338 425.871 221.9 426.539L224.195 424.606C223.156 423.374 221.675 422.522 219.895 421.966L219 424.829ZM264.672 412.372H266.172V410.81L264.611 410.874L264.672 412.372ZM264.672 457.897V459.397H266.172V457.897H264.672ZM254.097 457.897L252.621 458.166L252.845 459.397H254.097V457.897ZM253.047 452.122L254.522 451.854L253.731 447.501L251.712 451.438L253.047 452.122ZM248.622 456.772L249.384 458.065L248.622 456.772ZM232.647 454.297L231.487 455.25L231.493 455.256L231.498 455.262L232.647 454.297ZM230.697 431.197L232.106 431.71L230.697 431.197ZM234.222 425.272L233.229 424.148L233.225 424.151L234.222 425.272ZM239.397 423.397L239.118 421.923L239.113 421.924L239.397 423.397ZM251.997 423.172L251.725 424.648L253.613 424.996L253.494 423.079L251.997 423.172ZM251.772 412.897L251.711 411.399L250.272 411.457V412.897H251.772ZM251.847 447.772L252.291 449.205L253.347 448.878V447.772H251.847ZM251.847 431.497H253.347V430.19L252.052 430.012L251.847 431.497ZM244.197 431.572L243.402 430.3L243.357 430.328L243.314 430.359L244.197 431.572ZM242.847 435.022L241.371 434.751L241.368 434.767L241.366 434.782L242.847 435.022ZM243.747 446.947L242.632 447.951L242.645 447.966L242.659 447.981L243.747 446.947ZM263.172 412.372V457.897H266.172V412.372H263.172ZM264.672 456.397H254.097V459.397H264.672V456.397ZM255.572 457.629L254.522 451.854L251.571 452.391L252.621 458.166L255.572 457.629ZM251.712 451.438C250.846 453.127 249.574 454.47 247.86 455.48L249.384 458.065C251.57 456.775 253.247 455.018 254.381 452.807L251.712 451.438ZM247.86 455.48C246.159 456.483 244.226 456.997 242.022 456.997V459.997C244.717 459.997 247.184 459.362 249.384 458.065L247.86 455.48ZM242.022 456.997C238.531 456.997 235.839 455.768 233.796 453.333L231.498 455.262C234.154 458.426 237.712 459.997 242.022 459.997V456.997ZM233.806 453.345C231.818 450.926 230.697 447.13 230.697 441.697H227.697C227.697 447.465 228.875 452.069 231.487 455.25L233.806 453.345ZM230.697 441.697C230.697 437.55 231.186 434.239 232.106 431.71L229.287 430.685C228.207 433.655 227.697 437.345 227.697 441.697H230.697ZM232.106 431.71C233.068 429.065 234.135 427.356 235.218 426.394L233.225 424.151C231.608 425.589 230.325 427.83 229.287 430.685L232.106 431.71ZM235.214 426.397C235.438 426.2 235.882 425.935 236.664 425.651C237.428 425.375 238.427 425.111 239.68 424.87L239.113 421.924C237.767 422.183 236.603 422.483 235.642 422.831C234.698 423.173 233.856 423.595 233.229 424.148L235.214 426.397ZM239.675 424.871C242.26 424.384 244.514 424.147 246.447 424.147V421.147C244.279 421.147 241.833 421.411 239.118 421.923L239.675 424.871ZM246.447 424.147C248.149 424.147 249.908 424.313 251.725 424.648L252.268 421.697C250.285 421.332 248.344 421.147 246.447 421.147V424.147ZM253.494 423.079C253.419 421.88 253.363 420.952 253.325 420.294C253.307 419.965 253.293 419.706 253.284 419.515C253.279 419.42 253.276 419.344 253.274 419.287C253.273 419.259 253.272 419.237 253.272 419.22C253.272 419.203 253.272 419.196 253.272 419.197H250.272C250.272 419.509 250.352 420.906 250.5 423.266L253.494 423.079ZM253.272 419.197V412.897H250.272V419.197H253.272ZM251.833 414.396L264.733 413.871L264.611 410.874L251.711 411.399L251.833 414.396ZM247.647 449.947C249.165 449.947 250.715 449.694 252.291 449.205L251.402 446.34C250.078 446.751 248.828 446.947 247.647 446.947V449.947ZM253.347 447.772V431.497H250.347V447.772H253.347ZM252.052 430.012C250.522 429.801 248.852 429.697 247.047 429.697V432.697C248.741 432.697 250.271 432.794 251.642 432.983L252.052 430.012ZM247.047 429.697C246.263 429.697 245.579 429.73 245.013 429.804C244.5 429.872 243.89 429.995 243.402 430.3L244.992 432.844C244.903 432.9 244.968 432.836 245.405 432.778C245.789 432.728 246.33 432.697 247.047 432.697V429.697ZM243.314 430.359C242.686 430.816 242.306 431.534 242.05 432.188C241.776 432.887 241.555 433.753 241.371 434.751L244.322 435.294C244.488 434.392 244.667 433.733 244.843 433.282C245.037 432.786 245.157 432.729 245.079 432.786L243.314 430.359ZM241.366 434.782C241.052 436.719 240.897 438.749 240.897 440.872H243.897C243.897 438.895 244.041 437.026 244.327 435.263L241.366 434.782ZM240.897 440.872C240.897 442.461 241.013 443.848 241.27 445.004C241.523 446.144 241.94 447.182 242.632 447.951L244.862 445.944C244.654 445.713 244.395 445.238 244.198 444.353C244.005 443.485 243.897 442.334 243.897 440.872H240.897ZM242.659 447.981C243.947 449.336 245.673 449.947 247.647 449.947V446.947C246.321 446.947 245.446 446.558 244.834 445.914L242.659 447.981ZM273.975 454.672L272.932 455.751L272.942 455.76L272.951 455.769L273.975 454.672ZM270.45 432.472L268.996 432.102L268.993 432.112L268.991 432.122L270.45 432.472ZM272.775 427.147L273.889 428.151L273.898 428.141L272.775 427.147ZM279.075 423.922L278.678 422.476L278.672 422.478L279.075 423.922ZM301.275 454.297L302.353 455.34L301.275 454.297ZM291.525 448.072L292.895 448.682L292.899 448.673L292.903 448.663L291.525 448.072ZM292.05 435.097L290.575 435.371L290.577 435.381L292.05 435.097ZM290.625 432.172L289.564 433.233L289.605 433.274L289.648 433.311L290.625 432.172ZM284.1 431.722L285.087 432.851L285.168 432.78L285.238 432.699L284.1 431.722ZM283.125 435.022L284.611 435.223V435.223L283.125 435.022ZM283.725 447.997L282.364 448.629L282.373 448.649L282.383 448.668L283.725 447.997ZM287.475 457.372C281.681 457.372 277.615 456.019 274.998 453.576L272.951 455.769C276.334 458.926 281.268 460.372 287.475 460.372V457.372ZM275.017 453.594C272.476 451.139 271.05 447.138 271.05 441.247H268.05C268.05 447.557 269.573 452.506 272.932 455.751L275.017 453.594ZM271.05 441.247C271.05 437.982 271.342 435.179 271.908 432.823L268.991 432.122C268.357 434.766 268.05 437.813 268.05 441.247H271.05ZM271.903 432.843C272.54 430.344 273.244 428.868 273.889 428.151L271.66 426.144C270.505 427.426 269.659 429.501 268.996 432.102L271.903 432.843ZM273.898 428.141C274.755 427.173 276.508 426.195 279.477 425.367L278.672 422.478C275.541 423.35 273.094 424.522 271.651 426.154L273.898 428.141ZM279.471 425.369C282.466 424.548 285.231 424.147 287.775 424.147V421.147C284.918 421.147 281.883 421.597 278.678 422.476L279.471 425.369ZM287.775 424.147C294.075 424.147 298.182 425.501 300.514 427.833L302.635 425.712C299.467 422.544 294.374 421.147 287.775 421.147V424.147ZM300.514 427.833C302.86 430.179 304.2 434.105 304.2 439.972H307.2C307.2 433.74 305.789 428.866 302.635 425.712L300.514 427.833ZM304.2 439.972C304.2 446.285 302.762 450.602 300.196 453.255L302.353 455.34C305.687 451.893 307.2 446.66 307.2 439.972H304.2ZM300.196 453.255C297.639 455.898 293.51 457.372 287.475 457.372V460.372C293.939 460.372 299.01 458.797 302.353 455.34L300.196 453.255ZM287.7 451.597C288.837 451.597 289.904 451.402 290.82 450.917C291.762 450.418 292.462 449.656 292.895 448.682L290.154 447.463C289.987 447.839 289.749 448.089 289.416 448.266C289.058 448.455 288.512 448.597 287.7 448.597V451.597ZM292.903 448.663C293.635 446.955 293.925 444.229 293.925 440.722H290.925C290.925 444.216 290.614 446.39 290.146 447.482L292.903 448.663ZM293.925 440.722C293.925 438.243 293.8 436.255 293.523 434.814L290.577 435.381C290.799 436.54 290.925 438.302 290.925 440.722H293.925ZM293.524 434.824C293.241 433.296 292.662 431.943 291.601 431.034L289.648 433.311C289.987 433.602 290.358 434.199 290.575 435.371L293.524 434.824ZM291.685 431.112C290.636 430.063 289.143 429.697 287.55 429.697V432.697C288.756 432.697 289.313 432.982 289.564 433.233L291.685 431.112ZM287.55 429.697C286.519 429.697 285.645 429.742 284.961 429.846C284.62 429.898 284.281 429.971 283.973 430.082C283.693 430.184 283.282 430.372 282.961 430.746L285.238 432.699C285.067 432.898 284.912 432.933 284.995 432.903C285.049 432.883 285.179 432.847 285.413 432.812C285.879 432.741 286.58 432.697 287.55 432.697V429.697ZM283.112 430.594C282.562 431.074 282.286 431.812 282.117 432.385C281.924 433.039 281.768 433.861 281.638 434.822L284.611 435.223C284.731 434.333 284.863 433.681 284.994 433.235C285.06 433.013 285.117 432.874 285.155 432.796C285.2 432.707 285.19 432.761 285.087 432.851L283.112 430.594ZM281.638 434.822C281.378 436.743 281.25 438.735 281.25 440.797H284.25C284.25 438.86 284.371 437.002 284.611 435.223L281.638 434.822ZM281.25 440.797C281.25 444.215 281.564 446.906 282.364 448.629L285.085 447.366C284.585 446.288 284.25 444.18 284.25 440.797H281.25ZM282.383 448.668C283.404 450.711 285.349 451.597 287.7 451.597V448.597C286.15 448.597 285.445 448.084 285.066 447.327L282.383 448.668ZM364.52 425.797L363.262 426.615L363.267 426.622L363.272 426.63L364.52 425.797ZM365.72 457.897V459.397H367.22V457.897H365.72ZM352.895 457.897H351.395V459.397H352.895V457.897ZM352.37 433.672L353.431 432.612L352.37 433.672ZM349.82 433.072V431.572H349.758L349.695 431.578L349.82 433.072ZM348.92 433.147L349.017 434.644L349.031 434.643L349.045 434.642L348.92 433.147ZM344.495 434.197L343.904 432.819L342.947 433.229L342.997 434.269L344.495 434.197ZM344.57 457.897V459.397H346.07V457.897H344.57ZM331.745 457.897H330.245V459.397H331.745V457.897ZM331.22 433.672L330.159 434.733L331.22 433.672ZM328.67 433.072V431.572H328.608L328.545 431.578L328.67 433.072ZM327.77 433.147L327.824 434.647L327.859 434.645L327.895 434.642L327.77 433.147ZM323.42 434.122L322.863 432.73L321.92 433.107V434.122H323.42ZM323.42 457.897V459.397H324.92V457.897H323.42ZM310.595 457.897H309.095V459.397H310.595V457.897ZM310.595 423.397V421.897H309.095V423.397H310.595ZM321.02 423.397L322.479 423.047L322.203 421.897H321.02V423.397ZM322.37 429.022L320.911 429.373L321.656 432.475L323.57 429.922L322.37 429.022ZM328.07 424.222L328.703 425.583L328.715 425.577L328.728 425.57L328.07 424.222ZM339.845 423.472L339.371 424.896L339.383 424.9L339.845 423.472ZM343.37 425.797L342.112 426.615L342.117 426.622L342.122 426.63L343.37 425.797ZM344.12 428.272L342.64 428.519L343.184 431.778L345.28 429.224L344.12 428.272ZM360.995 423.472L360.521 424.896L360.533 424.9L360.995 423.472ZM363.272 426.63C363.269 426.626 363.281 426.642 363.302 426.689C363.324 426.736 363.35 426.802 363.381 426.891C363.442 427.073 363.509 427.321 363.576 427.646C363.709 428.298 363.828 429.181 363.926 430.314C364.12 432.576 364.22 435.714 364.22 439.747H367.22C367.22 435.681 367.12 432.444 366.915 430.056C366.812 428.864 366.681 427.854 366.514 427.043C366.358 426.281 366.139 425.521 365.768 424.965L363.272 426.63ZM364.22 439.747V457.897H367.22V439.747H364.22ZM365.72 456.397H352.895V459.397H365.72V456.397ZM354.395 457.897V441.022H351.395V457.897H354.395ZM354.395 441.022V436.972H351.395V441.022H354.395ZM354.395 436.972C354.395 436.013 354.35 435.186 354.245 434.524C354.192 434.193 354.119 433.865 354.01 433.565C353.907 433.281 353.736 432.917 353.431 432.612L351.309 434.733C351.179 434.603 351.161 434.508 351.189 434.586C351.212 434.649 351.248 434.777 351.282 434.996C351.352 435.434 351.395 436.082 351.395 436.972H354.395ZM353.431 432.612C352.954 432.135 352.337 431.894 351.776 431.762C351.198 431.626 350.535 431.572 349.82 431.572V434.572C350.405 434.572 350.817 434.619 351.089 434.683C351.378 434.751 351.386 434.81 351.309 434.733L353.431 432.612ZM349.695 431.578L348.795 431.653L349.045 434.642L349.945 434.567L349.695 431.578ZM348.823 431.651C347.107 431.761 345.464 432.15 343.904 432.819L345.086 435.576C346.326 435.045 347.633 434.734 349.017 434.644L348.823 431.651ZM342.997 434.269C343.045 435.279 343.07 437.096 343.07 439.747H346.07C346.07 437.099 346.045 435.216 345.993 434.126L342.997 434.269ZM343.07 439.747V457.897H346.07V439.747H343.07ZM344.57 456.397H331.745V459.397H344.57V456.397ZM333.245 457.897V441.022H330.245V457.897H333.245ZM333.245 441.022V436.522H330.245V441.022H333.245ZM333.245 436.522C333.245 435.704 333.2 434.977 333.089 434.376C332.99 433.84 332.795 433.126 332.281 432.612L330.159 434.733C330.058 434.632 330.04 434.561 330.059 434.609C330.076 434.65 330.107 434.747 330.139 434.919C330.203 435.268 330.245 435.791 330.245 436.522H333.245ZM332.281 432.612C331.804 432.135 331.187 431.894 330.626 431.762C330.048 431.626 329.385 431.572 328.67 431.572V434.572C329.255 434.572 329.667 434.619 329.939 434.683C330.228 434.751 330.236 434.81 330.159 434.733L332.281 432.612ZM328.545 431.578L327.645 431.653L327.895 434.642L328.795 434.567L328.545 431.578ZM327.716 431.648C326.12 431.705 324.499 432.075 322.863 432.73L323.977 435.515C325.341 434.97 326.621 434.689 327.824 434.647L327.716 431.648ZM321.92 434.122V457.897H324.92V434.122H321.92ZM323.42 456.397H310.595V459.397H323.42V456.397ZM312.095 457.897V423.397H309.095V457.897H312.095ZM310.595 424.897H321.02V421.897H310.595V424.897ZM319.561 423.748L320.911 429.373L323.829 428.672L322.479 423.047L319.561 423.748ZM323.57 429.922C325.096 427.888 326.81 426.463 328.703 425.583L327.437 422.862C325.03 423.982 322.945 425.756 321.17 428.122L323.57 429.922ZM328.728 425.57C330.692 424.612 332.643 424.147 334.595 424.147V421.147C332.147 421.147 329.749 421.733 327.412 422.875L328.728 425.57ZM334.595 424.147C336.294 424.147 337.883 424.4 339.371 424.895L340.319 422.049C338.507 421.445 336.596 421.147 334.595 421.147V424.147ZM339.383 424.9C340.912 425.394 341.723 426.016 342.112 426.615L344.628 424.98C343.717 423.578 342.178 422.651 340.307 422.045L339.383 424.9ZM342.122 426.63C342.229 426.79 342.442 427.331 342.64 428.519L345.6 428.026C345.398 426.814 345.111 425.705 344.618 424.965L342.122 426.63ZM345.28 429.224C346.749 427.433 348.39 426.165 350.198 425.371L348.992 422.624C346.7 423.63 344.691 425.212 342.96 427.321L345.28 429.224ZM350.198 425.371C352.076 424.547 353.921 424.147 355.745 424.147V421.147C353.469 421.147 351.214 421.648 348.992 422.624L350.198 425.371ZM355.745 424.147C357.444 424.147 359.033 424.4 360.521 424.895L361.469 422.049C359.657 421.445 357.746 421.147 355.745 421.147V424.147ZM360.533 424.9C362.062 425.394 362.873 426.016 363.262 426.615L365.778 424.98C364.867 423.578 363.328 422.651 361.457 422.045L360.533 424.9ZM373.929 417.397L372.891 418.48L372.902 418.491L372.913 418.501L373.929 417.397ZM373.929 409.147L372.913 408.044L372.902 408.054L372.891 408.064L373.929 409.147ZM371.904 423.397V421.897H370.404V423.397H371.904ZM384.729 423.397H386.229V421.897H384.729V423.397ZM384.729 457.897V459.397H386.229V457.897H384.729ZM371.904 457.897H370.404V459.397H371.904V457.897ZM378.354 417.622C377.03 417.622 375.917 417.189 374.945 416.294L372.913 418.501C374.441 419.906 376.278 420.622 378.354 420.622V417.622ZM374.967 416.314C374.049 415.435 373.629 414.446 373.629 413.272H370.629C370.629 415.299 371.409 417.06 372.891 418.48L374.967 416.314ZM373.629 413.272C373.629 412.099 374.049 411.11 374.967 410.23L372.891 408.064C371.409 409.485 370.629 411.246 370.629 413.272H373.629ZM374.945 410.251C375.917 409.356 377.03 408.922 378.354 408.922V405.922C376.278 405.922 374.441 406.639 372.913 408.044L374.945 410.251ZM378.354 408.922C379.677 408.922 380.752 409.355 381.666 410.23L383.742 408.064C382.256 406.64 380.431 405.922 378.354 405.922V408.922ZM381.666 410.23C382.584 411.11 383.004 412.099 383.004 413.272H386.004C386.004 411.246 385.224 409.485 383.742 408.064L381.666 410.23ZM383.004 413.272C383.004 414.446 382.584 415.435 381.666 416.314L383.742 418.48C385.224 417.06 386.004 415.299 386.004 413.272H383.004ZM381.666 416.314C380.752 417.19 379.677 417.622 378.354 417.622V420.622C380.431 420.622 382.256 419.905 383.742 418.48L381.666 416.314ZM371.904 424.897H384.729V421.897H371.904V424.897ZM383.229 423.397V457.897H386.229V423.397H383.229ZM384.729 456.397H371.904V459.397H384.729V456.397ZM373.404 457.897V423.397H370.404V457.897H373.404ZM424.463 425.572L425.624 424.623L425.617 424.614L425.611 424.606L424.463 425.572ZM425.438 429.697L423.944 429.833L423.946 429.85L423.948 429.867L425.438 429.697ZM425.813 457.897V459.397H427.313V457.897H425.813ZM412.988 457.897H411.488V459.397H412.988V457.897ZM412.613 433.822L413.885 433.027L413.839 432.954L413.784 432.885L412.613 433.822ZM408.263 433.147L408.317 434.647L408.396 434.644L408.475 434.632L408.263 433.147ZM403.913 434.122L403.356 432.73L402.413 433.107V434.122H403.913ZM403.913 457.897V459.397H405.413V457.897H403.913ZM391.088 457.897H389.588V459.397H391.088V457.897ZM391.088 423.397V421.897H389.588V423.397H391.088ZM401.513 423.397L402.969 423.038L402.688 421.897H401.513V423.397ZM402.938 429.172L401.482 429.532L402.195 432.423L404.094 430.129L402.938 429.172ZM420.863 423.397L420.403 424.825L420.416 424.829L420.863 423.397ZM423.302 426.522C423.3 426.52 423.433 426.718 423.585 427.361C423.724 427.953 423.848 428.769 423.944 429.833L426.932 429.562C426.829 428.426 426.689 427.455 426.504 426.671C426.331 425.939 426.076 425.175 425.624 424.623L423.302 426.522ZM423.948 429.867C424.188 431.979 424.313 435.259 424.313 439.747H427.313C427.313 435.236 427.189 431.816 426.929 429.528L423.948 429.867ZM424.313 439.747V457.897H427.313V439.747H424.313ZM425.813 456.397H412.988V459.397H425.813V456.397ZM414.488 457.897V439.897H411.488V457.897H414.488ZM414.488 439.897V436.822H411.488V439.897H414.488ZM414.488 436.822C414.488 435.992 414.456 435.273 414.383 434.686C414.317 434.161 414.197 433.526 413.885 433.027L411.341 434.617C411.28 434.519 411.347 434.584 411.406 435.059C411.458 435.472 411.488 436.053 411.488 436.822H414.488ZM413.784 432.885C413.309 432.291 412.636 431.981 412.011 431.812C411.373 431.64 410.635 431.572 409.838 431.572V434.572C410.491 434.572 410.941 434.63 411.228 434.708C411.528 434.789 411.518 434.854 411.442 434.76L413.784 432.885ZM409.838 431.572C409.122 431.572 408.51 431.597 408.051 431.663L408.475 434.632C408.716 434.598 409.155 434.572 409.838 434.572V431.572ZM408.21 431.648C406.613 431.705 404.992 432.075 403.356 432.73L404.47 435.515C405.834 434.97 407.114 434.689 408.317 434.647L408.21 431.648ZM402.413 434.122V457.897H405.413V434.122H402.413ZM403.913 456.397H391.088V459.397H403.913V456.397ZM392.588 457.897V423.397H389.588V457.897H392.588ZM391.088 424.897H401.513V421.897H391.088V424.897ZM400.057 423.757L401.482 429.532L404.395 428.813L402.969 423.038L400.057 423.757ZM404.094 430.129C407.45 426.073 411.346 424.147 415.838 424.147V421.147C410.33 421.147 405.626 423.572 401.783 428.216L404.094 430.129ZM415.838 424.147C417.498 424.147 419.016 424.378 420.403 424.825L421.324 421.97C419.61 421.417 417.778 421.147 415.838 421.147V424.147ZM420.416 424.829C421.836 425.273 422.754 425.871 423.316 426.539L425.611 424.606C424.572 423.374 423.091 422.522 421.311 421.966L420.416 424.829ZM466.238 423.397H467.738V421.897H466.238V423.397ZM466.238 457.897V459.397H467.738V457.897H466.238ZM455.813 457.897L454.356 458.257L454.638 459.397H455.813V457.897ZM454.388 452.122L455.844 451.763L455.131 448.872L453.232 451.166L454.388 452.122ZM436.388 457.897L435.927 459.325L435.94 459.329L436.388 457.897ZM432.863 455.722L431.702 456.672L431.708 456.681L431.715 456.689L432.863 455.722ZM431.813 451.597L430.319 451.733L430.32 451.75L430.322 451.767L431.813 451.597ZM431.513 423.397V421.897H430.013V423.397H431.513ZM444.338 423.397H445.838V421.897H444.338V423.397ZM444.863 447.472L446.091 446.612L446.087 446.606L446.083 446.601L444.863 447.472ZM447.863 448.222V449.722H447.909L447.956 449.72L447.863 448.222ZM449.063 448.147L449.009 446.648L448.989 446.649L448.969 446.65L449.063 448.147ZM453.413 447.172L453.97 448.565L454.913 448.188V447.172H453.413ZM453.413 423.397V421.897H451.913V423.397H453.413ZM464.738 423.397V457.897H467.738V423.397H464.738ZM466.238 456.397H455.813V459.397H466.238V456.397ZM457.269 457.538L455.844 451.763L452.931 452.482L454.356 458.257L457.269 457.538ZM453.232 451.166C449.876 455.222 445.979 457.147 441.488 457.147V460.147C446.996 460.147 451.7 457.723 455.543 453.079L453.232 451.166ZM441.488 457.147C439.828 457.147 438.28 456.917 436.835 456.466L435.94 459.329C437.695 459.878 439.547 460.147 441.488 460.147V457.147ZM436.848 456.47C435.484 456.03 434.581 455.434 434.01 454.756L431.715 456.689C432.745 457.911 434.191 458.765 435.927 459.325L436.848 456.47ZM434.024 454.773C434.036 454.788 433.996 454.742 433.929 454.58C433.865 454.425 433.792 454.206 433.716 453.909C433.565 453.313 433.424 452.493 433.303 451.428L430.322 451.767C430.451 452.901 430.611 453.869 430.809 454.649C430.995 455.378 431.258 456.13 431.702 456.672L434.024 454.773ZM433.306 451.462C433.113 449.332 433.013 446.038 433.013 441.547H430.013C430.013 446.056 430.112 449.463 430.319 451.733L433.306 451.462ZM433.013 441.547V423.397H430.013V441.547H433.013ZM431.513 424.897H444.338V421.897H431.513V424.897ZM442.838 423.397V441.397H445.838V423.397H442.838ZM442.838 441.397C442.838 442.421 442.863 443.615 442.914 444.978L445.912 444.867C445.862 443.53 445.838 442.374 445.838 441.397H442.838ZM442.914 444.978C442.94 445.688 442.994 446.314 443.085 446.833C443.168 447.3 443.312 447.882 443.642 448.344L446.083 446.601C446.138 446.677 446.14 446.71 446.117 446.642C446.097 446.582 446.069 446.476 446.04 446.312C445.981 445.981 445.935 445.507 445.912 444.867L442.914 444.978ZM443.634 448.333C444.118 449.024 444.883 449.333 445.511 449.49C446.179 449.657 446.979 449.722 447.863 449.722V446.722C447.096 446.722 446.571 446.663 446.239 446.58C445.867 446.487 445.957 446.421 446.091 446.612L443.634 448.333ZM447.956 449.72L449.156 449.645L448.969 446.65L447.769 446.725L447.956 449.72ZM449.116 449.647C450.713 449.589 452.333 449.22 453.97 448.565L452.855 445.78C451.492 446.325 450.212 446.605 449.009 446.648L449.116 449.647ZM454.913 447.172V423.397H451.913V447.172H454.913ZM453.413 424.897H466.238V421.897H453.413V424.897ZM496.012 455.797L495.165 454.559L495.155 454.567L496.012 455.797ZM471.412 457.147L469.919 456.998L469.787 458.324L471.088 458.612L471.412 457.147ZM472.087 452.872L470.619 452.563L470.616 452.579L470.613 452.594L472.087 452.872ZM473.062 448.522L473.309 447.043L471.943 446.815L471.607 448.159L473.062 448.522ZM479.062 449.272L478.926 450.766L478.943 450.768L478.96 450.769L479.062 449.272ZM487.162 449.272L487.833 450.614L488.051 450.505L488.223 450.333L487.162 449.272ZM487.312 448.897L485.919 448.34L485.882 448.435L485.857 448.534L487.312 448.897ZM485.587 446.122L485.991 444.678L485.971 444.672L485.951 444.667L485.587 446.122ZM481.012 444.847L480.604 446.291L481.012 444.847ZM474.487 440.797L473.33 441.752L473.343 441.768L473.356 441.783L474.487 440.797ZM473.062 428.197L471.655 427.679L473.062 428.197ZM475.312 424.597L476.107 425.869L476.126 425.858L476.144 425.846L475.312 424.597ZM479.662 423.397L479.919 424.875L479.935 424.873L479.95 424.87L479.662 423.397ZM498.562 423.622H500.062V422.322L498.774 422.138L498.562 423.622ZM498.187 428.197L499.677 428.375L499.677 428.371L498.187 428.197ZM497.512 432.172L497.319 433.66L498.511 433.814L498.922 432.685L497.512 432.172ZM484.612 431.572L484.085 430.168L484.012 430.196L483.941 430.231L484.612 431.572ZM484.312 432.022L485.654 432.693L485.682 432.637L485.705 432.58L484.312 432.022ZM484.837 434.347L485.758 433.163L485.715 433.13L485.669 433.099L484.837 434.347ZM488.362 435.622L488.778 434.181L488.761 434.176L488.744 434.172L488.362 435.622ZM494.137 437.647L493.536 439.022L493.543 439.025L493.551 439.028L494.137 437.647ZM498.412 440.797L497.273 441.774L497.283 441.785L497.293 441.796L498.412 440.797ZM498.787 446.197C498.787 450.312 497.49 452.969 495.165 454.56L496.859 457.035C500.234 454.726 501.787 450.983 501.787 446.197H498.787ZM495.155 454.567C492.707 456.272 489.056 457.222 484.012 457.222V460.222C489.368 460.222 493.717 459.223 496.869 457.028L495.155 454.567ZM484.012 457.222C480.5 457.222 476.412 456.717 471.736 455.683L471.088 458.612C475.912 459.678 480.224 460.222 484.012 460.222V457.222ZM472.905 457.297C472.998 456.363 473.213 454.988 473.561 453.151L470.613 452.594C470.261 454.456 470.026 455.932 469.919 456.998L472.905 457.297ZM473.555 453.181C473.954 451.287 474.274 449.859 474.517 448.886L471.607 448.159C471.35 449.186 471.02 450.658 470.619 452.563L473.555 453.181ZM472.815 450.002C474.659 450.309 476.697 450.564 478.926 450.766L479.198 447.779C477.027 447.581 475.065 447.336 473.309 447.043L472.815 450.002ZM478.96 450.769C481.181 450.92 483.092 450.997 484.687 450.997V447.997C483.182 447.997 481.343 447.924 479.164 447.776L478.96 450.769ZM484.687 450.997C485.383 450.997 485.977 450.978 486.454 450.935C486.857 450.898 487.401 450.83 487.833 450.614L486.491 447.931C486.59 447.881 486.633 447.882 486.544 447.9C486.473 447.914 486.357 447.932 486.182 447.947C485.834 447.979 485.341 447.997 484.687 447.997V450.997ZM488.223 450.333C488.469 450.087 488.585 449.81 488.63 449.698C488.689 449.549 488.733 449.396 488.767 449.261L485.857 448.534C485.841 448.598 485.835 448.608 485.844 448.584C485.85 448.571 485.866 448.531 485.897 448.477C485.925 448.428 485.989 448.324 486.101 448.212L488.223 450.333ZM488.705 449.455C488.87 449.041 488.962 448.603 488.962 448.147H485.962C485.962 448.192 485.954 448.254 485.919 448.34L488.705 449.455ZM488.962 448.147C488.962 447.305 488.686 446.512 488.094 445.872C487.531 445.264 486.779 444.898 485.991 444.678L485.183 447.567C485.645 447.696 485.831 447.843 485.893 447.91C485.925 447.945 485.962 447.99 485.962 448.147H488.962ZM485.951 444.667C485.58 444.574 484.086 444.158 481.421 443.404L480.604 446.291C483.238 447.036 484.794 447.47 485.223 447.578L485.951 444.667ZM481.421 443.404C479.032 442.728 477.114 441.528 475.618 439.812L473.356 441.783C475.26 443.967 477.692 445.467 480.604 446.291L481.421 443.404ZM475.644 439.843C474.246 438.148 473.512 436.025 473.512 433.372H470.512C470.512 436.62 471.428 439.447 473.33 441.752L475.644 439.843ZM473.512 433.372C473.512 432.044 473.813 430.498 474.47 428.716L471.655 427.679C470.911 429.697 470.512 431.601 470.512 433.372H473.512ZM474.47 428.716C474.798 427.825 475.119 427.152 475.422 426.667C475.731 426.172 475.972 425.954 476.107 425.869L474.517 423.325C473.852 423.741 473.318 424.373 472.878 425.077C472.43 425.793 472.026 426.67 471.655 427.679L474.47 428.716ZM476.144 425.846C476.233 425.786 476.548 425.637 477.248 425.443C477.909 425.261 478.794 425.071 479.919 424.875L479.405 421.92C478.23 422.124 477.24 422.334 476.451 422.551C475.701 422.758 474.991 423.008 474.48 423.349L476.144 425.846ZM479.95 424.87C482.173 424.435 484.201 424.222 486.037 424.222V421.222C483.973 421.222 481.751 421.46 479.374 421.925L479.95 424.87ZM486.037 424.222C490.114 424.222 494.219 424.517 498.35 425.107L498.774 422.138C494.505 421.528 490.26 421.222 486.037 421.222V424.222ZM497.062 423.622C497.062 424.427 496.947 425.874 496.697 428.024L499.677 428.371C499.927 426.221 500.062 424.618 500.062 423.622H497.062ZM496.698 428.02C496.574 429.058 496.459 429.887 496.352 430.515C496.24 431.173 496.152 431.524 496.102 431.66L498.922 432.685C499.072 432.271 499.196 431.685 499.31 431.017C499.428 430.321 499.55 429.437 499.676 428.375L496.698 428.02ZM497.705 430.685C493.426 430.131 489.929 429.847 487.237 429.847V432.847C489.745 432.847 493.098 433.114 497.319 433.66L497.705 430.685ZM487.237 429.847C486.539 429.847 485.936 429.867 485.44 429.909C484.978 429.949 484.488 430.017 484.085 430.168L485.139 432.977C485.136 432.978 485.283 432.934 485.696 432.898C486.075 432.866 486.585 432.847 487.237 432.847V429.847ZM483.941 430.231C483.556 430.423 483.329 430.718 483.214 430.89C483.086 431.083 482.991 431.286 482.919 431.465L485.705 432.58C485.733 432.509 485.738 432.512 485.71 432.555C485.694 432.578 485.658 432.629 485.598 432.689C485.537 432.75 485.434 432.838 485.283 432.914L483.941 430.231ZM482.97 431.352C482.724 431.845 482.662 432.383 482.662 432.847H485.662C485.662 432.741 485.67 432.677 485.675 432.647C485.681 432.616 485.681 432.639 485.654 432.693L482.97 431.352ZM482.662 432.847C482.662 433.884 483.017 434.937 484.005 435.596L485.669 433.099C485.669 433.099 485.671 433.101 485.675 433.104C485.679 433.108 485.684 433.113 485.688 433.118C485.698 433.129 485.701 433.136 485.699 433.132C485.694 433.121 485.662 433.042 485.662 432.847H482.662ZM483.916 435.531C484.342 435.863 484.943 436.121 485.546 436.339C486.192 436.573 487.008 436.817 487.98 437.073L488.744 434.172C487.816 433.928 487.095 433.709 486.566 433.518C486.302 433.423 486.102 433.34 485.956 433.27C485.801 433.196 485.751 433.158 485.758 433.163L483.916 435.531ZM487.946 437.064C490.152 437.701 492.012 438.355 493.536 439.022L494.738 436.273C493.062 435.54 491.072 434.844 488.778 434.181L487.946 437.064ZM493.551 439.028C494.982 439.635 496.219 440.544 497.273 441.774L499.551 439.821C498.205 438.251 496.592 437.06 494.723 436.267L493.551 439.028ZM497.293 441.796C498.256 442.875 498.787 444.299 498.787 446.197H501.787C501.787 443.696 501.068 441.52 499.531 439.798L497.293 441.796ZM516.045 412.897L515.983 411.399L514.545 411.458V412.897H516.045ZM528.87 412.372H530.37V410.81L528.808 410.874L528.87 412.372ZM528.87 457.897V459.397H530.37V457.897H528.87ZM516.045 457.897H514.545V459.397H516.045V457.897ZM516.106 414.396L528.931 413.871L528.808 410.874L515.983 411.399L516.106 414.396ZM527.37 412.372V457.897H530.37V412.372H527.37ZM528.87 456.397H516.045V459.397H528.87V456.397ZM517.545 457.897V412.897H514.545V457.897H517.545ZM555.779 457.897L554.325 458.267L554.612 459.397H555.779V457.897ZM554.579 453.172L556.033 452.803L555.158 449.359L553.3 452.388L554.579 453.172ZM536.729 456.022L535.722 457.135L535.736 457.147L535.75 457.159L536.729 456.022ZM535.379 442.597L534.197 441.674L534.193 441.679L535.379 442.597ZM540.479 439.222L540.067 437.78L540.056 437.783L540.045 437.787L540.479 439.222ZM553.454 437.872L553.479 439.372L554.954 439.347V437.872H553.454ZM553.004 432.622L552.067 433.794L552.118 433.834L552.172 433.871L553.004 432.622ZM547.079 432.472L547.141 433.971L547.16 433.97L547.179 433.969L547.079 432.472ZM537.329 433.297L535.845 433.517L536.057 434.946L537.492 434.789L537.329 433.297ZM536.429 424.597L536.124 423.129L534.848 423.394L534.932 424.694L536.429 424.597ZM544.754 423.247L544.934 424.737L544.946 424.735L544.959 424.733L544.754 423.247ZM561.554 424.672L560.715 425.916L560.725 425.923L560.736 425.93L561.554 424.672ZM565.454 429.847L566.899 429.444L565.454 429.847ZM566.279 438.022L564.779 438L564.779 438.012L566.279 438.022ZM566.204 449.047L564.704 449.037L564.704 449.061L564.704 449.086L566.204 449.047ZM566.429 457.897V459.397H567.967L567.928 457.859L566.429 457.897ZM553.454 449.647L553.943 451.066L554.954 450.717V449.647H553.454ZM553.454 444.097H554.954V442.597H553.454V444.097ZM546.704 444.697L545.643 443.637V443.637L546.704 444.697ZM546.104 445.822L544.667 445.391L544.647 445.459L544.633 445.528L546.104 445.822ZM546.779 449.722L545.829 450.883V450.883L546.779 449.722ZM557.233 457.528L556.033 452.803L553.125 453.542L554.325 458.267L557.233 457.528ZM553.3 452.388C551.249 455.733 548.513 457.297 544.979 457.297V460.297C549.645 460.297 553.309 458.112 555.857 453.957L553.3 452.388ZM544.979 457.297C541.919 457.297 539.537 456.46 537.707 454.885L535.75 457.159C538.22 459.285 541.338 460.297 544.979 460.297V457.297ZM537.735 454.91C536.012 453.351 535.079 451.141 535.079 448.072H532.079C532.079 451.804 533.246 454.894 535.722 457.135L537.735 454.91ZM535.079 448.072C535.079 446.28 535.583 444.784 536.565 443.516L534.193 441.679C532.774 443.511 532.079 445.665 532.079 448.072H535.079ZM536.561 443.521C537.6 442.191 539.026 441.229 540.913 440.658L540.045 437.787C537.631 438.516 535.657 439.804 534.197 441.674L536.561 443.521ZM540.891 440.665C543.494 439.921 547.657 439.472 553.479 439.372L553.428 436.373C547.551 436.473 543.064 436.924 540.067 437.78L540.891 440.665ZM554.954 437.872C554.954 436.21 554.916 434.897 554.836 433.957C554.796 433.493 554.742 433.071 554.662 432.726C554.623 432.555 554.566 432.354 554.479 432.158C554.409 432.002 554.23 431.637 553.836 431.374L552.172 433.871C551.853 433.658 551.744 433.391 551.74 433.382C551.718 433.333 551.722 433.327 551.739 433.4C551.772 433.543 551.812 433.802 551.847 434.213C551.916 435.023 551.954 436.235 551.954 437.872H554.954ZM553.941 431.451C553.651 431.219 553.332 431.108 553.125 431.049C552.894 430.983 552.646 430.94 552.402 430.909C551.913 430.848 551.306 430.822 550.604 430.822V433.822C551.252 433.822 551.719 433.847 552.03 433.886C552.186 433.905 552.27 433.925 552.301 433.933C552.357 433.949 552.232 433.926 552.067 433.794L553.941 431.451ZM550.604 430.822C549.705 430.822 548.491 430.875 546.979 430.976L547.179 433.969C548.666 433.87 549.803 433.822 550.604 433.822V430.822ZM547.016 430.974C544.567 431.076 541.279 431.355 537.165 431.806L537.492 434.789C541.579 434.34 544.791 434.069 547.141 433.971L547.016 430.974ZM538.813 433.078C538.419 430.424 538.123 427.565 537.926 424.501L534.932 424.694C535.134 427.83 535.438 430.771 535.845 433.517L538.813 433.078ZM536.734 426.066C539.339 425.525 542.072 425.082 544.934 424.737L544.574 421.758C541.635 422.113 538.818 422.57 536.124 423.129L536.734 426.066ZM544.959 424.733C547.808 424.34 550.338 424.147 552.554 424.147V421.147C550.17 421.147 547.499 421.355 544.549 421.762L544.959 424.733ZM552.554 424.147C556.432 424.147 559.077 424.81 560.715 425.916L562.393 423.429C560.03 421.834 556.676 421.147 552.554 421.147V424.147ZM560.736 425.93C562.453 427.046 563.514 428.478 564.009 430.251L566.899 429.444C566.193 426.917 564.655 424.899 562.371 423.415L560.736 425.93ZM564.009 430.251C564.557 432.213 564.828 434.782 564.779 438L567.779 438.045C567.83 434.663 567.551 431.782 566.899 429.444L564.009 430.251ZM564.779 438.012L564.704 449.037L567.704 449.058L567.779 438.033L564.779 438.012ZM564.704 449.086L564.929 457.936L567.928 457.859L567.703 449.009L564.704 449.086ZM566.429 456.397H555.779V459.397H566.429V456.397ZM549.329 451.897C550.822 451.897 552.363 451.61 553.943 451.066L552.965 448.229C551.645 448.685 550.436 448.897 549.329 448.897V451.897ZM554.954 449.647V444.097H551.954V449.647H554.954ZM553.454 442.597H552.854V445.597H553.454V442.597ZM552.854 442.597C550.987 442.597 549.493 442.648 548.396 442.755C547.85 442.808 547.362 442.879 546.956 442.978C546.638 443.056 546.063 443.217 545.643 443.637L547.764 445.758C547.545 445.978 547.376 445.964 547.67 445.892C547.877 445.841 548.207 445.787 548.687 445.74C549.64 445.647 551.021 445.597 552.854 445.597V442.597ZM545.643 443.637C545.154 444.126 544.857 444.759 544.667 445.391L547.541 446.253C547.651 445.886 547.754 445.769 547.764 445.758L545.643 443.637ZM544.633 445.528C544.516 446.113 544.454 446.687 544.454 447.247H547.454C547.454 446.908 547.492 446.532 547.575 446.117L544.633 445.528ZM544.454 447.247C544.454 448.597 544.751 450.001 545.829 450.883L547.729 448.562C547.707 448.544 547.454 448.298 547.454 447.247H544.454ZM545.829 450.883C546.769 451.652 548.032 451.897 549.329 451.897V448.897C548.326 448.897 547.889 448.693 547.729 448.562L545.829 450.883ZM604.245 426.172L603.126 427.172L603.132 427.179L603.138 427.185L604.245 426.172ZM606.12 449.797L604.679 449.379L604.677 449.387L604.675 449.395L606.12 449.797ZM603.195 455.647L602.277 454.461L602.265 454.47L602.252 454.481L603.195 455.647ZM597.42 457.972L597.131 456.5L597.42 457.972ZM580.32 458.122L580.512 456.635L580.5 456.633L580.488 456.632L580.32 458.122ZM571.995 456.397H570.495V457.486L571.529 457.823L571.995 456.397ZM571.995 412.897L571.934 411.399L570.495 411.457V412.897H571.995ZM584.97 412.372H586.47V410.811L584.909 410.874L584.97 412.372ZM584.895 422.197L583.396 422.146L583.395 422.172V422.197H584.895ZM584.745 425.872L586.236 426.029L586.237 426.022L584.745 425.872ZM584.295 428.047L582.902 427.49L582.565 428.334L583.156 429.024L584.295 428.047ZM584.745 428.572L583.606 429.549L584.903 431.062L585.998 429.396L584.745 428.572ZM589.095 424.297L589.893 425.567L589.095 424.297ZM593.145 449.722L594.417 450.517L594.424 450.506L594.431 450.494L593.145 449.722ZM593.895 446.197L592.408 445.997L592.405 446.016L592.403 446.036L593.895 446.197ZM593.97 436.147L592.482 436.341L592.486 436.373L592.492 436.404L593.97 436.147ZM592.695 433.447L591.595 434.468L591.633 434.509L591.674 434.547L592.695 433.447ZM584.82 432.922L584.555 431.446L583.32 431.668V432.922H584.82ZM584.82 449.872H583.32V451.149L584.58 451.353L584.82 449.872ZM595.245 424.147C598.827 424.147 601.376 425.214 603.126 427.172L605.363 425.173C602.913 422.431 599.462 421.147 595.245 421.147V424.147ZM603.138 427.185C604.891 429.102 605.97 432.759 605.97 438.622H608.97C608.97 432.586 607.898 427.943 605.351 425.16L603.138 427.185ZM605.97 438.622C605.97 442.877 605.529 446.453 604.679 449.379L607.56 450.216C608.511 446.942 608.97 443.068 608.97 438.622H605.97ZM604.675 449.395C604.265 450.865 603.839 452.016 603.409 452.877C602.971 453.753 602.576 454.23 602.277 454.461L604.112 456.834C604.913 456.215 605.556 455.292 606.093 454.218C606.637 453.128 607.124 451.78 607.565 450.2L604.675 449.395ZM602.252 454.481C601.219 455.315 599.562 456.024 597.131 456.5L597.708 459.444C600.377 458.921 602.57 458.08 604.137 456.814L602.252 454.481ZM597.131 456.5C594.696 456.978 591.896 457.222 588.72 457.222V460.222C592.044 460.222 595.043 459.967 597.708 459.444L597.131 456.5ZM588.72 457.222C586.297 457.222 583.563 457.029 580.512 456.635L580.128 459.61C583.276 460.016 586.142 460.222 588.72 460.222V457.222ZM580.488 456.632C577.469 456.291 574.796 455.734 572.46 454.972L571.529 457.823C574.093 458.661 576.971 459.254 580.151 459.613L580.488 456.632ZM573.495 456.397V412.897H570.495V456.397H573.495ZM572.055 414.396L585.03 413.871L584.909 410.874L571.934 411.399L572.055 414.396ZM583.47 412.372V419.422H586.47V412.372H583.47ZM583.47 419.422C583.47 419.791 583.446 420.688 583.396 422.146L586.394 422.249C586.443 420.807 586.47 419.854 586.47 419.422H583.47ZM583.395 422.197C583.395 423.617 583.345 424.789 583.252 425.723L586.237 426.022C586.344 424.956 586.395 423.678 586.395 422.197H583.395ZM583.253 425.715C583.158 426.617 583.026 427.181 582.902 427.49L585.687 428.605C585.964 427.914 586.131 427.028 586.236 426.029L583.253 425.715ZM583.156 429.024L583.606 429.549L585.884 427.596L585.434 427.071L583.156 429.024ZM585.998 429.396C587.032 427.823 588.327 426.551 589.893 425.567L588.296 423.028C586.362 424.243 584.758 425.821 583.491 427.749L585.998 429.396ZM589.893 425.567C591.372 424.638 593.137 424.147 595.245 424.147V421.147C592.652 421.147 590.317 421.757 588.296 423.028L589.893 425.567ZM594.431 450.494C594.716 450.019 594.893 449.394 595.024 448.778C595.164 448.122 595.283 447.31 595.386 446.359L592.403 446.036C592.306 446.935 592.2 447.636 592.09 448.154C592.035 448.413 591.982 448.609 591.935 448.753C591.885 448.904 591.855 448.957 591.858 448.951L594.431 450.494ZM595.381 446.398C595.639 444.488 595.77 442.646 595.77 440.872H592.77C592.77 442.499 592.65 444.207 592.408 445.997L595.381 446.398ZM595.77 440.872C595.77 438.838 595.669 437.164 595.447 435.89L592.492 436.404C592.67 437.431 592.77 438.907 592.77 440.872H595.77ZM595.457 435.953C595.272 434.534 594.723 433.284 593.715 432.348L591.674 434.547C592.066 434.911 592.367 435.461 592.482 436.341L595.457 435.953ZM593.794 432.427C592.75 431.302 591.241 430.897 589.62 430.897V433.897C590.798 433.897 591.34 434.193 591.595 434.468L593.794 432.427ZM589.62 430.897C588.245 430.897 586.548 431.088 584.555 431.446L585.085 434.399C586.991 434.057 588.494 433.897 589.62 433.897V430.897ZM583.32 432.922V449.872H586.32V432.922H583.32ZM584.58 451.353C586.514 451.667 588.52 451.822 590.595 451.822V448.822C588.67 448.822 586.825 448.678 585.06 448.392L584.58 451.353ZM590.595 451.822C591.37 451.822 592.076 451.771 592.663 451.633C593.178 451.511 593.963 451.243 594.417 450.517L591.873 448.927C591.984 448.749 592.109 448.677 592.126 448.668C592.143 448.659 592.105 448.682 591.976 448.712C591.713 448.774 591.269 448.822 590.595 448.822V451.822ZM636.051 455.797L635.204 454.559L635.194 454.567L636.051 455.797ZM611.451 457.147L609.959 456.998L609.826 458.324L611.127 458.612L611.451 457.147ZM612.126 452.872L610.658 452.563L610.655 452.579L610.652 452.594L612.126 452.872ZM613.101 448.522L613.348 447.043L611.982 446.815L611.646 448.159L613.101 448.522ZM619.101 449.272L618.965 450.766L618.982 450.768L618.999 450.769L619.101 449.272ZM627.201 449.272L627.872 450.614L628.09 450.505L628.262 450.333L627.201 449.272ZM627.351 448.897L625.958 448.34L625.921 448.435L625.896 448.534L627.351 448.897ZM625.626 446.122L626.031 444.678L626.01 444.672L625.99 444.667L625.626 446.122ZM621.051 444.847L620.643 446.291L621.051 444.847ZM614.526 440.797L613.369 441.752L613.382 441.768L613.395 441.783L614.526 440.797ZM613.101 428.197L611.694 427.679L613.101 428.197ZM615.351 424.597L616.146 425.869L616.165 425.858L616.183 425.846L615.351 424.597ZM619.701 423.397L619.958 424.875L619.974 424.873L619.989 424.87L619.701 423.397ZM638.601 423.622H640.101V422.322L638.813 422.138L638.601 423.622ZM638.226 428.197L639.716 428.375L639.716 428.371L638.226 428.197ZM637.551 432.172L637.359 433.66L638.55 433.814L638.961 432.685L637.551 432.172ZM624.651 431.572L624.124 430.168L624.051 430.196L623.98 430.231L624.651 431.572ZM624.351 432.022L625.693 432.693L625.721 432.637L625.744 432.58L624.351 432.022ZM624.876 434.347L625.797 433.163L625.754 433.13L625.708 433.099L624.876 434.347ZM628.401 435.622L628.817 434.181L628.8 434.176L628.783 434.172L628.401 435.622ZM634.176 437.647L633.575 439.022L633.583 439.025L633.59 439.028L634.176 437.647ZM638.451 440.797L637.312 441.774L637.322 441.785L637.332 441.796L638.451 440.797ZM638.826 446.197C638.826 450.312 637.529 452.969 635.204 454.56L636.898 457.035C640.273 454.726 641.826 450.983 641.826 446.197H638.826ZM635.194 454.567C632.746 456.272 629.095 457.222 624.051 457.222V460.222C629.407 460.222 633.757 459.223 636.908 457.028L635.194 454.567ZM624.051 457.222C620.539 457.222 616.451 456.717 611.775 455.683L611.127 458.612C615.951 459.678 620.263 460.222 624.051 460.222V457.222ZM612.944 457.297C613.037 456.363 613.252 454.988 613.6 453.151L610.652 452.594C610.3 454.456 610.065 455.932 609.959 456.998L612.944 457.297ZM613.594 453.181C613.993 451.287 614.313 449.859 614.556 448.886L611.646 448.159C611.389 449.186 611.059 450.658 610.658 452.563L613.594 453.181ZM612.854 450.002C614.698 450.309 616.736 450.564 618.965 450.766L619.237 447.779C617.067 447.581 615.104 447.336 613.348 447.043L612.854 450.002ZM618.999 450.769C621.22 450.92 623.131 450.997 624.726 450.997V447.997C623.221 447.997 621.382 447.924 619.203 447.776L618.999 450.769ZM624.726 450.997C625.422 450.997 626.016 450.978 626.493 450.935C626.896 450.898 627.44 450.83 627.872 450.614L626.53 447.931C626.63 447.881 626.672 447.882 626.583 447.9C626.513 447.914 626.396 447.932 626.222 447.947C625.873 447.979 625.38 447.997 624.726 447.997V450.997ZM628.262 450.333C628.508 450.087 628.624 449.81 628.669 449.698C628.728 449.549 628.772 449.396 628.806 449.261L625.896 448.534C625.88 448.598 625.874 448.608 625.883 448.584C625.889 448.571 625.905 448.531 625.936 448.477C625.964 448.428 626.028 448.324 626.14 448.212L628.262 450.333ZM628.744 449.455C628.909 449.041 629.001 448.603 629.001 448.147H626.001C626.001 448.192 625.993 448.254 625.958 448.34L628.744 449.455ZM629.001 448.147C629.001 447.305 628.726 446.512 628.133 445.872C627.57 445.264 626.818 444.898 626.031 444.678L625.222 447.567C625.684 447.696 625.87 447.843 625.932 447.91C625.964 447.945 626.001 447.99 626.001 448.147H629.001ZM625.99 444.667C625.619 444.574 624.125 444.158 621.46 443.404L620.643 446.291C623.277 447.036 624.833 447.47 625.262 447.578L625.99 444.667ZM621.46 443.404C619.071 442.728 617.153 441.528 615.657 439.812L613.395 441.783C615.299 443.967 617.732 445.467 620.643 446.291L621.46 443.404ZM615.683 439.843C614.285 438.148 613.551 436.025 613.551 433.372H610.551C610.551 436.62 611.467 439.447 613.369 441.752L615.683 439.843ZM613.551 433.372C613.551 432.044 613.852 430.498 614.509 428.716L611.694 427.679C610.95 429.697 610.551 431.601 610.551 433.372H613.551ZM614.509 428.716C614.837 427.825 615.158 427.152 615.461 426.667C615.77 426.172 616.011 425.954 616.146 425.869L614.556 423.325C613.891 423.741 613.357 424.373 612.917 425.077C612.469 425.793 612.065 426.67 611.694 427.679L614.509 428.716ZM616.183 425.846C616.272 425.786 616.587 425.637 617.287 425.443C617.948 425.261 618.833 425.071 619.958 424.875L619.444 421.92C618.269 422.124 617.28 422.334 616.49 422.551C615.74 422.758 615.03 423.008 614.519 423.349L616.183 425.846ZM619.989 424.87C622.213 424.435 624.24 424.222 626.076 424.222V421.222C624.012 421.222 621.79 421.46 619.413 421.925L619.989 424.87ZM626.076 424.222C630.154 424.222 634.258 424.517 638.389 425.107L638.813 422.138C634.544 421.528 630.299 421.222 626.076 421.222V424.222ZM637.101 423.622C637.101 424.427 636.986 425.874 636.736 428.024L639.716 428.371C639.966 426.221 640.101 424.618 640.101 423.622H637.101ZM636.737 428.02C636.613 429.058 636.498 429.887 636.391 430.515C636.279 431.173 636.191 431.524 636.141 431.66L638.961 432.685C639.111 432.271 639.235 431.685 639.349 431.017C639.467 430.321 639.589 429.437 639.716 428.375L636.737 428.02ZM637.744 430.685C633.465 430.131 629.968 429.847 627.276 429.847V432.847C629.784 432.847 633.137 433.114 637.359 433.66L637.744 430.685ZM627.276 429.847C626.578 429.847 625.975 429.867 625.479 429.909C625.017 429.949 624.527 430.017 624.124 430.168L625.178 432.977C625.175 432.978 625.322 432.934 625.735 432.898C626.114 432.866 626.624 432.847 627.276 432.847V429.847ZM623.98 430.231C623.595 430.423 623.368 430.718 623.253 430.89C623.125 431.083 623.03 431.286 622.958 431.465L625.744 432.58C625.772 432.509 625.777 432.512 625.749 432.555C625.733 432.578 625.698 432.629 625.637 432.689C625.577 432.75 625.473 432.838 625.322 432.914L623.98 430.231ZM623.009 431.352C622.763 431.845 622.701 432.383 622.701 432.847H625.701C625.701 432.741 625.709 432.677 625.714 432.647C625.72 432.616 625.72 432.639 625.693 432.693L623.009 431.352ZM622.701 432.847C622.701 433.884 623.056 434.937 624.044 435.596L625.708 433.099C625.708 433.099 625.71 433.101 625.714 433.104C625.718 433.108 625.723 433.113 625.727 433.118C625.737 433.129 625.74 433.136 625.738 433.132C625.733 433.121 625.701 433.042 625.701 432.847H622.701ZM623.955 435.531C624.381 435.863 624.982 436.121 625.585 436.339C626.231 436.573 627.047 436.817 628.019 437.073L628.783 434.172C627.855 433.928 627.134 433.709 626.605 433.518C626.341 433.423 626.141 433.34 625.995 433.27C625.841 433.196 625.79 433.158 625.797 433.163L623.955 435.531ZM627.985 437.064C630.191 437.701 632.051 438.355 633.575 439.022L634.777 436.273C633.101 435.54 631.111 434.844 628.817 434.181L627.985 437.064ZM633.59 439.028C635.021 439.635 636.258 440.544 637.312 441.774L639.59 439.821C638.244 438.251 636.631 437.06 634.762 436.267L633.59 439.028ZM637.332 441.796C638.295 442.875 638.826 444.299 638.826 446.197H641.826C641.826 443.696 641.107 441.52 639.57 439.798L637.332 441.796Z" fill="black" fill-opacity="0.4"/>
</g>
<g filter="url(#filter2_d_54_2)">
<rect x="430.512" y="237.651" width="31.0391" height="101.985" fill="url(#paint2_angular_54_2)"/>
<rect x="431.512" y="238.651" width="29.0391" height="99.985" stroke="black" stroke-width="2"/>
</g>
<g filter="url(#filter3_f_54_2)">
<rect x="430.684" y="237.65" width="31.0391" height="101.985" fill="url(#paint3_angular_54_2)"/>
<rect x="431.684" y="238.65" width="29.0391" height="99.985" stroke="black" stroke-width="2"/>
</g>
<g filter="url(#filter4_d_54_2)">
<ellipse cx="446.031" cy="204.118" rx="17.7366" ry="15.7966" fill="url(#paint4_angular_54_2)"/>
<path d="M462.768 204.118C462.768 212.184 455.387 218.914 446.031 218.914C436.676 218.914 429.295 212.184 429.295 204.118C429.295 196.051 436.676 189.321 446.031 189.321C455.387 189.321 462.768 196.051 462.768 204.118Z" stroke="black" stroke-width="2"/>
</g>
<g filter="url(#filter5_f_54_2)">
<ellipse cx="446.203" cy="204.117" rx="17.7366" ry="15.7966" fill="url(#paint5_angular_54_2)"/>
<path d="M462.94 204.117C462.94 212.184 455.559 218.914 446.203 218.914C436.848 218.914 429.467 212.184 429.467 204.117C429.467 196.051 436.848 189.321 446.203 189.321C455.559 189.321 462.94 196.051 462.94 204.117Z" stroke="black" stroke-width="2"/>
</g>
<g filter="url(#filter6_d_54_2)">
<rect x="430.821" y="237.651" width="31.0391" height="101.985" fill="url(#paint6_angular_54_2)"/>
<rect x="431.821" y="238.651" width="29.0391" height="99.985" stroke="black" stroke-width="2"/>
</g>
<g filter="url(#filter7_d_54_2)">
<rect x="430.993" y="237.651" width="31.0391" height="101.985" fill="url(#paint7_angular_54_2)"/>
<rect x="431.993" y="238.651" width="29.0391" height="99.985" stroke="black" stroke-width="2"/>
</g>
<g filter="url(#filter8_d_54_2)">
<ellipse cx="446.341" cy="204.118" rx="17.7366" ry="15.7966" fill="url(#paint8_angular_54_2)"/>
<path d="M463.078 204.118C463.078 212.184 455.696 218.915 446.341 218.915C436.986 218.915 429.604 212.184 429.604 204.118C429.604 196.052 436.986 189.322 446.341 189.322C455.696 189.322 463.078 196.052 463.078 204.118Z" stroke="black" stroke-width="2"/>
</g>
<g filter="url(#filter9_d_54_2)">
<ellipse cx="446.513" cy="204.118" rx="17.7366" ry="15.7966" fill="url(#paint9_angular_54_2)"/>
<path d="M463.25 204.118C463.25 212.184 455.868 218.915 446.513 218.915C437.158 218.915 429.776 212.184 429.776 204.118C429.776 196.052 437.158 189.321 446.513 189.321C455.868 189.321 463.25 196.052 463.25 204.118Z" stroke="black" stroke-width="2"/>
</g>
<g filter="url(#filter10_df_54_2)">
<path fill-rule="evenodd" clip-rule="evenodd" d="M353.983 122.442C353.771 122.373 353.535 122.376 353.312 122.468C347.072 125.047 340.769 129.326 337.16 134.631C333.378 140.19 331.529 146.697 331.863 153.269C332.197 159.84 334.698 166.156 339.027 171.357C342.343 175.341 346.607 178.523 351.456 180.669V349.136C351.456 349.178 351.457 349.22 351.457 349.261H351.456V368.897C351.456 375.525 356.829 380.897 363.456 380.897H463.94V349.261H378.952L378.953 349.212L378.953 349.176L378.953 349.155C378.953 349.101 378.953 349.046 378.952 348.992L376.026 167.185C375.951 162.487 372.274 158.638 367.584 158.347L364.01 158.126C363.066 158.067 362.146 157.811 361.308 157.373C361.23 157.332 361.151 157.293 361.072 157.255C360.691 156.946 360.341 156.601 360.029 156.225C359.042 155.039 358.471 153.599 358.395 152.101C358.319 150.602 358.741 149.118 359.603 147.851C360.267 146.875 361.581 145.865 362.83 145.189H397.891C398.754 145.631 399.517 146.215 400.135 146.914C401.122 148.03 401.693 149.386 401.769 150.796C401.845 152.206 401.423 153.602 400.561 154.795C399.969 155.614 396.955 156.654 394.643 157.4C390.554 158.249 387.482 161.872 387.482 166.212V282.318C387.482 287.289 391.512 291.318 396.482 291.318H399.859C404.83 291.318 408.859 287.289 408.859 282.318V177.846C414.414 175.379 419.782 171.692 423.004 167.235C426.786 162.004 428.635 155.88 428.301 149.697C427.967 143.513 425.465 137.569 421.137 132.674C417.244 128.272 412.043 124.911 406.123 122.947C405.443 122.601 404.674 122.406 403.859 122.406H354.587C354.383 122.406 354.181 122.418 353.983 122.442Z" fill="url(#paint10_angular_54_2)" shape-rendering="crispEdges"/>
</g>
<g filter="url(#filter11_d_54_2)">
<mask id="path-21-inside-1_54_2" fill="white">
<path fill-rule="evenodd" clip-rule="evenodd" d="M353.734 122.442C353.522 122.373 353.286 122.376 353.063 122.468C346.822 125.047 340.52 129.326 336.911 134.631C333.129 140.19 331.28 146.697 331.614 153.269C331.948 159.84 334.449 166.156 338.778 171.357C342.094 175.341 346.358 178.523 351.207 180.669V349.136C351.207 349.178 351.208 349.22 351.208 349.261H351.207V368.897C351.207 375.525 356.58 380.897 363.207 380.897H463.691V349.261H378.703L378.704 349.212L378.704 349.176L378.704 349.155C378.704 349.101 378.704 349.046 378.703 348.992L375.777 167.185C375.702 162.487 372.025 158.638 367.335 158.347L363.761 158.126C362.817 158.067 361.897 157.811 361.059 157.373C360.981 157.332 360.902 157.293 360.823 157.255C360.442 156.946 360.092 156.601 359.78 156.225C358.793 155.039 358.222 153.599 358.146 152.101C358.07 150.602 358.491 149.118 359.354 147.851C360.018 146.875 361.332 145.865 362.581 145.189H397.642C398.505 145.631 399.268 146.215 399.886 146.914C400.873 148.03 401.444 149.386 401.52 150.796C401.596 152.206 401.174 153.602 400.312 154.795C399.72 155.614 396.706 156.654 394.394 157.4C390.305 158.249 387.233 161.872 387.233 166.212V282.318C387.233 287.289 391.262 291.318 396.233 291.318H399.61C404.581 291.318 408.61 287.289 408.61 282.318V177.846C414.165 175.379 419.533 171.692 422.755 167.235C426.537 162.004 428.386 155.88 428.052 149.697C427.718 143.513 425.216 137.569 420.888 132.674C416.995 128.272 411.794 124.911 405.874 122.947C405.194 122.601 404.425 122.406 403.61 122.406H354.338C354.134 122.406 353.932 122.418 353.734 122.442Z"/>
</mask>
<path fill-rule="evenodd" clip-rule="evenodd" d="M353.734 122.442C353.522 122.373 353.286 122.376 353.063 122.468C346.822 125.047 340.52 129.326 336.911 134.631C333.129 140.19 331.28 146.697 331.614 153.269C331.948 159.84 334.449 166.156 338.778 171.357C342.094 175.341 346.358 178.523 351.207 180.669V349.136C351.207 349.178 351.208 349.22 351.208 349.261H351.207V368.897C351.207 375.525 356.58 380.897 363.207 380.897H463.691V349.261H378.703L378.704 349.212L378.704 349.176L378.704 349.155C378.704 349.101 378.704 349.046 378.703 348.992L375.777 167.185C375.702 162.487 372.025 158.638 367.335 158.347L363.761 158.126C362.817 158.067 361.897 157.811 361.059 157.373C360.981 157.332 360.902 157.293 360.823 157.255C360.442 156.946 360.092 156.601 359.78 156.225C358.793 155.039 358.222 153.599 358.146 152.101C358.07 150.602 358.491 149.118 359.354 147.851C360.018 146.875 361.332 145.865 362.581 145.189H397.642C398.505 145.631 399.268 146.215 399.886 146.914C400.873 148.03 401.444 149.386 401.52 150.796C401.596 152.206 401.174 153.602 400.312 154.795C399.72 155.614 396.706 156.654 394.394 157.4C390.305 158.249 387.233 161.872 387.233 166.212V282.318C387.233 287.289 391.262 291.318 396.233 291.318H399.61C404.581 291.318 408.61 287.289 408.61 282.318V177.846C414.165 175.379 419.533 171.692 422.755 167.235C426.537 162.004 428.386 155.88 428.052 149.697C427.718 143.513 425.216 137.569 420.888 132.674C416.995 128.272 411.794 124.911 405.874 122.947C405.194 122.601 404.425 122.406 403.61 122.406H354.338C354.134 122.406 353.932 122.418 353.734 122.442Z" fill="url(#paint11_angular_54_2)" shape-rendering="crispEdges"/>
<path d="M353.063 122.468L353.827 124.317L353.827 124.317L353.063 122.468ZM353.734 122.442L353.115 124.344L353.535 124.481L353.973 124.428L353.734 122.442ZM336.911 134.631L335.257 133.506V133.506L336.911 134.631ZM331.614 153.269L329.616 153.37L331.614 153.269ZM338.778 171.357L337.241 172.637L338.778 171.357ZM351.207 180.669H353.207V179.367L352.017 178.84L351.207 180.669ZM351.208 349.261V351.261H353.236L353.208 349.234L351.208 349.261ZM351.207 349.261V347.261H349.207V349.261H351.207ZM463.691 380.897V382.897H465.691V380.897H463.691ZM463.691 349.261H465.691V347.261H463.691V349.261ZM378.703 349.261L376.703 349.24L376.682 351.261H378.703V349.261ZM378.704 349.212L380.704 349.233L380.704 349.224L378.704 349.212ZM378.704 349.176L380.704 349.188L380.704 349.182L378.704 349.176ZM378.704 349.155L380.704 349.161L380.704 349.158L378.704 349.155ZM378.703 348.992L380.703 348.959V348.959L378.703 348.992ZM375.777 167.185L373.778 167.217L375.777 167.185ZM367.335 158.347L367.212 160.343L367.335 158.347ZM363.761 158.126L363.637 160.122H363.637L363.761 158.126ZM361.059 157.373L360.132 159.145L360.132 159.145L361.059 157.373ZM360.823 157.255L359.562 158.808L359.748 158.958L359.963 159.061L360.823 157.255ZM359.78 156.225L361.317 154.946H361.317L359.78 156.225ZM359.354 147.851L361.007 148.976V148.976L359.354 147.851ZM362.581 145.189V143.189H362.074L361.628 143.43L362.581 145.189ZM397.642 145.189L398.553 143.409L398.124 143.189H397.642V145.189ZM399.886 146.914L398.388 148.239L398.388 148.239L399.886 146.914ZM400.312 154.795L401.933 155.967V155.967L400.312 154.795ZM394.394 157.4L394.801 159.359L394.906 159.337L395.009 159.304L394.394 157.4ZM408.61 177.846L407.798 176.018L406.61 176.545V177.846H408.61ZM422.755 167.235L424.376 168.407L422.755 167.235ZM420.888 132.674L419.389 133.999L420.888 132.674ZM405.874 122.947L404.967 124.729L405.101 124.797L405.244 124.845L405.874 122.947ZM353.827 124.317C353.592 124.414 353.337 124.416 353.115 124.344L354.353 120.54C353.707 120.33 352.979 120.339 352.299 120.62L353.827 124.317ZM338.564 135.756C341.881 130.881 347.806 126.805 353.827 124.317L352.299 120.62C345.839 123.29 339.158 127.772 335.257 133.506L338.564 135.756ZM333.611 153.167C333.3 147.041 335.022 140.963 338.564 135.756L335.257 133.506C331.236 139.417 329.259 146.353 329.616 153.37L333.611 153.167ZM340.315 170.078C336.255 165.199 333.923 159.293 333.611 153.167L329.616 153.37C329.973 160.386 332.644 167.113 337.241 172.637L340.315 170.078ZM352.017 178.84C347.439 176.814 343.427 173.816 340.315 170.078L337.241 172.637C340.761 176.866 345.277 180.232 350.398 182.498L352.017 178.84ZM353.207 349.136V180.669H349.207V349.136H353.207ZM353.208 349.234C353.208 349.201 353.207 349.169 353.207 349.136H349.207C349.207 349.187 349.208 349.238 349.208 349.288L353.208 349.234ZM351.207 351.261H351.208V347.261H351.207V351.261ZM353.207 368.897V349.261H349.207V368.897H353.207ZM363.207 378.897C357.685 378.897 353.207 374.42 353.207 368.897H349.207C349.207 376.629 355.475 382.897 363.207 382.897V378.897ZM463.691 378.897H363.207V382.897H463.691V378.897ZM461.691 349.261V380.897H465.691V349.261H461.691ZM378.703 351.261H463.691V347.261H378.703V351.261ZM376.704 349.191L376.703 349.24L380.703 349.282L380.704 349.233L376.704 349.191ZM376.704 349.164L376.704 349.2L380.704 349.224L380.704 349.188L376.704 349.164ZM376.704 349.149L376.704 349.17L380.704 349.182L380.704 349.161L376.704 349.149ZM376.703 349.024C376.704 349.066 376.704 349.109 376.704 349.152L380.704 349.158C380.704 349.092 380.704 349.026 380.703 348.959L376.703 349.024ZM373.778 167.217L376.703 349.024L380.703 348.959L377.777 167.153L373.778 167.217ZM367.212 160.343C370.859 160.569 373.719 163.563 373.778 167.217L377.777 167.153C377.685 161.411 373.191 156.706 367.459 156.351L367.212 160.343ZM363.637 160.122L367.212 160.343L367.459 156.351L363.884 156.129L363.637 160.122ZM360.132 159.145C361.219 159.713 362.413 160.046 363.637 160.122L363.884 156.129C363.221 156.088 362.574 155.908 361.985 155.6L360.132 159.145ZM359.963 159.061C360.02 159.088 360.076 159.116 360.132 159.145L361.985 155.6C361.885 155.548 361.784 155.498 361.683 155.449L359.963 159.061ZM358.242 157.505C358.64 157.982 359.083 158.418 359.562 158.808L362.084 155.703C361.802 155.474 361.545 155.22 361.317 154.946L358.242 157.505ZM356.149 152.202C356.247 154.146 356.987 155.996 358.242 157.505L361.317 154.946C360.598 154.082 360.197 153.052 360.143 151.999L356.149 152.202ZM357.7 146.726C356.598 148.345 356.05 150.258 356.149 152.202L360.143 151.999C360.09 150.946 360.385 149.891 361.007 148.976L357.7 146.726ZM361.628 143.43C360.246 144.179 358.619 145.375 357.7 146.726L361.007 148.976C361.416 148.374 362.418 147.552 363.533 146.948L361.628 143.43ZM397.642 143.189H362.581V147.189H397.642V143.189ZM401.384 145.589C400.591 144.693 399.626 143.958 398.553 143.409L396.731 146.97C397.383 147.304 397.944 147.737 398.388 148.239L401.384 145.589ZM403.517 150.688C403.415 148.801 402.652 147.023 401.384 145.589L398.388 148.239C399.094 149.037 399.472 149.97 399.523 150.904L403.517 150.688ZM401.933 155.967C403.051 154.42 403.619 152.575 403.517 150.688L399.523 150.904C399.573 151.836 399.298 152.784 398.691 153.623L401.933 155.967ZM395.009 159.304C396.17 158.929 397.563 158.463 398.754 157.976C399.347 157.734 399.935 157.469 400.437 157.189C400.866 156.95 401.508 156.554 401.933 155.967L398.691 153.623C398.82 153.445 398.863 153.487 398.488 153.696C398.187 153.864 397.765 154.06 397.242 154.273C396.201 154.698 394.931 155.125 393.779 155.497L395.009 159.304ZM389.233 166.212C389.233 162.839 391.621 160.019 394.801 159.359L393.987 155.442C388.99 156.48 385.233 160.905 385.233 166.212H389.233ZM389.233 282.318V166.212H385.233V282.318H389.233ZM396.233 289.318C392.367 289.318 389.233 286.184 389.233 282.318H385.233C385.233 288.393 390.158 293.318 396.233 293.318V289.318ZM399.61 289.318H396.233V293.318H399.61V289.318ZM406.61 282.318C406.61 286.184 403.476 289.318 399.61 289.318V293.318C405.685 293.318 410.61 288.393 410.61 282.318H406.61ZM406.61 177.846V282.318H410.61V177.846H406.61ZM421.134 166.063C418.191 170.134 413.165 173.635 407.798 176.018L409.422 179.674C415.164 177.123 420.875 173.249 424.376 168.407L421.134 166.063ZM426.055 149.804C426.363 155.511 424.66 161.187 421.134 166.063L424.376 168.407C428.413 162.822 430.409 156.25 430.049 149.589L426.055 149.804ZM419.389 133.999C423.437 138.576 425.747 144.097 426.055 149.804L430.049 149.589C429.689 142.928 426.996 136.562 422.386 131.349L419.389 133.999ZM405.244 124.845C410.853 126.706 415.746 129.88 419.389 133.999L422.386 131.349C418.243 126.665 412.735 123.116 406.503 121.048L405.244 124.845ZM403.61 124.406C404.103 124.406 404.562 124.523 404.967 124.729L406.78 121.164C405.826 120.679 404.747 120.406 403.61 120.406V124.406ZM354.338 124.406H403.61V120.406H354.338V124.406ZM353.973 124.428C354.092 124.414 354.214 124.406 354.338 124.406V120.406C354.053 120.406 353.772 120.423 353.495 120.457L353.973 124.428Z" fill="black" mask="url(#path-21-inside-1_54_2)"/>
</g>
<defs>
<filter id="filter0_f_54_2" x="163.255" y="404.384" width="483.071" height="63.4502" filterUnits="userSpaceOnUse" color-interpolation-filters="sRGB">
<feFlood flood-opacity="0" result="BackgroundImageFix"/>
<feBlend mode="normal" in="SourceGraphic" in2="BackgroundImageFix" result="shape"/>
<feGaussianBlur stdDeviation="3" result="effect1_foregroundBlur_54_2"/>
</filter>
<filter id="filter1_d_54_2" x="165.255" y="407.422" width="479.071" height="59.4502" filterUnits="userSpaceOnUse" color-interpolation-filters="sRGB">
<feFlood flood-opacity="0" result="BackgroundImageFix"/>
<feColorMatrix in="SourceAlpha" type="matrix" values="0 0 0 0 0 0 0 0 0 0 0 0 0 0 0 0 0 0 127 0" result="hardAlpha"/>
<feOffset dy="4"/>
<feGaussianBlur stdDeviation="2"/>
<feComposite in2="hardAlpha" operator="out"/>
<feColorMatrix type="matrix" values="0 0 0 0 0 0 0 0 0 0 0 0 0 0 0 0 0 0 0.03 0"/>
<feBlend mode="normal" in2="BackgroundImageFix" result="effect1_dropShadow_54_2"/>
<feBlend mode="normal" in="SourceGraphic" in2="effect1_dropShadow_54_2" result="shape"/>
</filter>
<filter id="filter2_d_54_2" x="426.512" y="237.651" width="39.0391" height="109.985" filterUnits="userSpaceOnUse" color-interpolation-filters="sRGB">
<feFlood flood-opacity="0" result="BackgroundImageFix"/>
<feColorMatrix in="SourceAlpha" type="matrix" values="0 0 0 0 0 0 0 0 0 0 0 0 0 0 0 0 0 0 127 0" result="hardAlpha"/>
<feOffset dy="4"/>
<feGaussianBlur stdDeviation="2"/>
<feComposite in2="hardAlpha" operator="out"/>
<feColorMatrix type="matrix" values="0 0 0 0 0 0 0 0 0 0 0 0 0 0 0 0 0 0 0.25 0"/>
<feBlend mode="normal" in2="BackgroundImageFix" result="effect1_dropShadow_54_2"/>
<feBlend mode="normal" in="SourceGraphic" in2="effect1_dropShadow_54_2" result="shape"/>
</filter>
<filter id="filter3_f_54_2" x="415.684" y="222.65" width="61.0391" height="131.985" filterUnits="userSpaceOnUse" color-interpolation-filters="sRGB">
<feFlood flood-opacity="0" result="BackgroundImageFix"/>
<feBlend mode="normal" in="SourceGraphic" in2="BackgroundImageFix" result="shape"/>
<feGaussianBlur stdDeviation="7.5" result="effect1_foregroundBlur_54_2"/>
</filter>
<filter id="filter4_d_54_2" x="424.295" y="188.321" width="43.4727" height="39.5933" filterUnits="userSpaceOnUse" color-interpolation-filters="sRGB">
<feFlood flood-opacity="0" result="BackgroundImageFix"/>
<feColorMatrix in="SourceAlpha" type="matrix" values="0 0 0 0 0 0 0 0 0 0 0 0 0 0 0 0 0 0 127 0" result="hardAlpha"/>
<feOffset dy="4"/>
<feGaussianBlur stdDeviation="2"/>
<feComposite in2="hardAlpha" operator="out"/>
<feColorMatrix type="matrix" values="0 0 0 0 0 0 0 0 0 0 0 0 0 0 0 0 0 0 0.25 0"/>
<feBlend mode="normal" in2="BackgroundImageFix" result="effect1_dropShadow_54_2"/>
<feBlend mode="normal" in="SourceGraphic" in2="effect1_dropShadow_54_2" result="shape"/>
</filter>
<filter id="filter5_f_54_2" x="413.467" y="173.321" width="65.4727" height="61.5933" filterUnits="userSpaceOnUse" color-interpolation-filters="sRGB">
<feFlood flood-opacity="0" result="BackgroundImageFix"/>
<feBlend mode="normal" in="SourceGraphic" in2="BackgroundImageFix" result="shape"/>
<feGaussianBlur stdDeviation="7.5" result="effect1_foregroundBlur_54_2"/>
</filter>
<filter id="filter6_d_54_2" x="426.821" y="237.651" width="39.0391" height="109.985" filterUnits="userSpaceOnUse" color-interpolation-filters="sRGB">
<feFlood flood-opacity="0" result="BackgroundImageFix"/>
<feColorMatrix in="SourceAlpha" type="matrix" values="0 0 0 0 0 0 0 0 0 0 0 0 0 0 0 0 0 0 127 0" result="hardAlpha"/>
<feOffset dy="4"/>
<feGaussianBlur stdDeviation="2"/>
<feComposite in2="hardAlpha" operator="out"/>
<feColorMatrix type="matrix" values="0 0 0 0 0 0 0 0 0 0 0 0 0 0 0 0 0 0 0.25 0"/>
<feBlend mode="normal" in2="BackgroundImageFix" result="effect1_dropShadow_54_2"/>
<feBlend mode="normal" in="SourceGraphic" in2="effect1_dropShadow_54_2" result="shape"/>
</filter>
<filter id="filter7_d_54_2" x="426.993" y="237.651" width="39.0391" height="109.985" filterUnits="userSpaceOnUse" color-interpolation-filters="sRGB">
<feFlood flood-opacity="0" result="BackgroundImageFix"/>
<feColorMatrix in="SourceAlpha" type="matrix" values="0 0 0 0 0 0 0 0 0 0 0 0 0 0 0 0 0 0 127 0" result="hardAlpha"/>
<feOffset dy="4"/>
<feGaussianBlur stdDeviation="2"/>
<feComposite in2="hardAlpha" operator="out"/>
<feColorMatrix type="matrix" values="0 0 0 0 0 0 0 0 0 0 0 0 0 0 0 0 0 0 0.25 0"/>
<feBlend mode="normal" in2="BackgroundImageFix" result="effect1_dropShadow_54_2"/>
<feBlend mode="normal" in="SourceGraphic" in2="effect1_dropShadow_54_2" result="shape"/>
</filter>
<filter id="filter8_d_54_2" x="424.604" y="188.322" width="43.4736" height="39.5933" filterUnits="userSpaceOnUse" color-interpolation-filters="sRGB">
<feFlood flood-opacity="0" result="BackgroundImageFix"/>
<feColorMatrix in="SourceAlpha" type="matrix" values="0 0 0 0 0 0 0 0 0 0 0 0 0 0 0 0 0 0 127 0" result="hardAlpha"/>
<feOffset dy="4"/>
<feGaussianBlur stdDeviation="2"/>
<feComposite in2="hardAlpha" operator="out"/>
<feColorMatrix type="matrix" values="0 0 0 0 0 0 0 0 0 0 0 0 0 0 0 0 0 0 0.25 0"/>
<feBlend mode="normal" in2="BackgroundImageFix" result="effect1_dropShadow_54_2"/>
<feBlend mode="normal" in="SourceGraphic" in2="effect1_dropShadow_54_2" result="shape"/>
</filter>
<filter id="filter9_d_54_2" x="424.776" y="188.321" width="43.4736" height="39.5933" filterUnits="userSpaceOnUse" color-interpolation-filters="sRGB">
<feFlood flood-opacity="0" result="BackgroundImageFix"/>
<feColorMatrix in="SourceAlpha" type="matrix" values="0 0 0 0 0 0 0 0 0 0 0 0 0 0 0 0 0 0 127 0" result="hardAlpha"/>
<feOffset dy="4"/>
<feGaussianBlur stdDeviation="2"/>
<feComposite in2="hardAlpha" operator="out"/>
<feColorMatrix type="matrix" values="0 0 0 0 0 0 0 0 0 0 0 0 0 0 0 0 0 0 0.25 0"/>
<feBlend mode="normal" in2="BackgroundImageFix" result="effect1_dropShadow_54_2"/>
<feBlend mode="normal" in="SourceGraphic" in2="effect1_dropShadow_54_2" result="shape"/>
</filter>
<filter id="filter10_df_54_2" x="319.824" y="114.394" width="156.115" height="282.503" filterUnits="userSpaceOnUse" color-interpolation-filters="sRGB">
<feFlood flood-opacity="0" result="BackgroundImageFix"/>
<feColorMatrix in="SourceAlpha" type="matrix" values="0 0 0 0 0 0 0 0 0 0 0 0 0 0 0 0 0 0 127 0" result="hardAlpha"/>
<feOffset dy="4"/>
<feGaussianBlur stdDeviation="6"/>
<feComposite in2="hardAlpha" operator="out"/>
<feColorMatrix type="matrix" values="0 0 0 0 0 0 0 0 0 0 0 0 0 0 0 0 0 0 0.7 0"/>
<feBlend mode="normal" in2="BackgroundImageFix" result="effect1_dropShadow_54_2"/>
<feBlend mode="normal" in="SourceGraphic" in2="effect1_dropShadow_54_2" result="shape"/>
<feGaussianBlur stdDeviation="0.5" result="effect2_foregroundBlur_54_2"/>
</filter>
<filter id="filter11_d_54_2" x="313.575" y="104.394" width="168.115" height="294.503" filterUnits="userSpaceOnUse" color-interpolation-filters="sRGB">
<feFlood flood-opacity="0" result="BackgroundImageFix"/>
<feColorMatrix in="SourceAlpha" type="matrix" values="0 0 0 0 0 0 0 0 0 0 0 0 0 0 0 0 0 0 127 0" result="hardAlpha"/>
<feOffset/>
<feGaussianBlur stdDeviation="9"/>
<feComposite in2="hardAlpha" operator="out"/>
<feColorMatrix type="matrix" values="0 0 0 0 0 0 0 0 0 0 0 0 0 0 0 0 0 0 0.3 0"/>
<feBlend mode="normal" in2="BackgroundImageFix" result="effect1_dropShadow_54_2"/>
<feBlend mode="normal" in="SourceGraphic" in2="effect1_dropShadow_54_2" result="shape"/>
</filter>
<linearGradient id="paint0_linear_54_2" x1="400.633" y1="421.31" x2="400.633" y2="464.103" gradientUnits="userSpaceOnUse">
<stop stop-color="#0006FF"/>
<stop offset="1" stop-color="#0006FF"/>
</linearGradient>
<linearGradient id="paint1_linear_54_2" x1="400.633" y1="425.692" x2="400.633" y2="477.606" gradientUnits="userSpaceOnUse">
<stop/>
<stop offset="1" stop-color="#0006FF"/>
</linearGradient>
<radialGradient id="paint2_angular_54_2" cx="0" cy="0" r="1" gradientUnits="userSpaceOnUse" gradientTransform="translate(471.574 346.181) rotate(157.457) scale(140.641 165.358)">
<stop stop-color="#015EEB"/>
<stop offset="0.263072" stop-color="#02337D"/>
<stop offset="1"/>
</radialGradient>
<radialGradient id="paint3_angular_54_2" cx="0" cy="0" r="1" gradientUnits="userSpaceOnUse" gradientTransform="translate(471.746 346.181) rotate(157.457) scale(140.641 165.358)">
<stop stop-color="#0006FF"/>
<stop offset="1"/>
</radialGradient>
<radialGradient id="paint4_angular_54_2" cx="0" cy="0" r="1" gradientUnits="userSpaceOnUse" gradientTransform="translate(630.621 250.83) rotate(-173.515) scale(285.138 167.702)">
<stop offset="0.0591879" stop-color="#0161F0"/>
<stop offset="0.729988" stop-color="#004203"/>
<stop offset="1"/>
</radialGradient>
<radialGradient id="paint5_angular_54_2" cx="0" cy="0" r="1" gradientUnits="userSpaceOnUse" gradientTransform="translate(630.793 250.83) rotate(-173.515) scale(285.138 167.702)">
<stop offset="0.0591879" stop-color="#0006FF"/>
<stop offset="1"/>
</radialGradient>
<radialGradient id="paint6_angular_54_2" cx="0" cy="0" r="1" gradientUnits="userSpaceOnUse" gradientTransform="translate(471.884 346.182) rotate(157.457) scale(140.641 165.358)">
<stop stop-color="#015EEB"/>
<stop offset="0.263072" stop-color="#02337D"/>
<stop offset="1"/>
</radialGradient>
<radialGradient id="paint7_angular_54_2" cx="0" cy="0" r="1" gradientUnits="userSpaceOnUse" gradientTransform="translate(472.056 346.182) rotate(157.457) scale(140.641 165.358)">
<stop stop-color="#0006FF"/>
<stop offset="1"/>
</radialGradient>
<radialGradient id="paint8_angular_54_2" cx="0" cy="0" r="1" gradientUnits="userSpaceOnUse" gradientTransform="translate(630.93 250.831) rotate(-173.515) scale(285.138 167.702)">
<stop offset="0.0591879" stop-color="#0161F0"/>
<stop offset="0.729988" stop-color="#004203"/>
<stop offset="1"/>
</radialGradient>
<radialGradient id="paint9_angular_54_2" cx="0" cy="0" r="1" gradientUnits="userSpaceOnUse" gradientTransform="translate(631.102 250.83) rotate(-173.515) scale(285.138 167.702)">
<stop offset="0.0591879" stop-color="#0006FF"/>
<stop offset="1"/>
</radialGradient>
<radialGradient id="paint10_angular_54_2" cx="0" cy="0" r="1" gradientUnits="userSpaceOnUse" gradientTransform="translate(397.882 283.864) rotate(-45.3024) scale(139.725 276.443)">
<stop offset="0.246245" stop-color="#0006FF"/>
<stop offset="1" stop-opacity="0.99"/>
</radialGradient>
<radialGradient id="paint11_angular_54_2" cx="0" cy="0" r="1" gradientUnits="userSpaceOnUse" gradientTransform="translate(397.633 283.864) rotate(-45.3024) scale(139.725 276.443)">
<stop offset="0.246245" stop-color="#0006FF"/>
<stop offset="1" stop-opacity="0.99"/>
</radialGradient>
</defs>
</svg>
